<svg xmlns="http://www.w3.org/2000/svg" width="151" height="150" viewBox="0 0 151 150" fill="none"><path d="M49.7643 27.0747L69.4776 32.4176V2.33044L49.7643 7.67336V27.0747ZM30.5187 88.1015H40.2444V43.4634L30.5187 53.3156V88.1015ZM61.697 89.9015H22.813L14.6022 98.219H61.697V89.9015ZM88.7793 62.9595L63.4551 69.8371V98.219H88.8915L88.7793 62.9595ZM42.0399 52.0273L56.909 56.0629L56.8529 88.1015H61.697V68.454L78.1184 64.0015V36.6427L42.0399 26.8473V52.0273ZM112.794 41.853L97.9439 34.3312V98.2001H112.794V41.853ZM114.571 91.6824V98.2001H132.47L126.036 91.6824H114.571ZM0.687032 98.219H12.096L22.0835 88.1015H28.7606V52.5767L40.2631 40.9246V24.4979L47.9875 26.601V6.30922C55.7307 4.20615 63.4925 2.10307 71.2357 0V12.9026L84.3466 16.4646L84.3279 62.3532L88.7793 61.1406V50.2653L96.1858 48.2569V31.4513L114.571 40.7541V89.8825H126.766L134.976 98.2001H150.5V100H0.5V98.2001H0.687032V98.219Z" fill="white"></path><path d="M44.5839 128.48C45.8852 128.757 46.9306 129.408 47.7199 130.432C48.5092 131.435 48.9039 132.587 48.9039 133.888C48.9039 135.765 48.2426 137.259 46.9199 138.368C45.6186 139.456 43.7946 140 41.4479 140H30.9839V117.536H41.0959C43.3786 117.536 45.1599 118.059 46.4399 119.104C47.7412 120.149 48.3919 121.568 48.3919 123.36C48.3919 124.683 48.0399 125.781 47.3359 126.656C46.6532 127.531 45.7359 128.139 44.5839 128.48ZM36.4559 126.624H40.0399C40.9359 126.624 41.6186 126.432 42.0879 126.048C42.5786 125.643 42.8239 125.056 42.8239 124.288C42.8239 123.52 42.5786 122.933 42.0879 122.528C41.6186 122.123 40.9359 121.92 40.0399 121.92H36.4559V126.624ZM40.4879 135.584C41.4052 135.584 42.1092 135.381 42.5999 134.976C43.1119 134.549 43.3679 133.941 43.3679 133.152C43.3679 132.363 43.1012 131.744 42.5679 131.296C42.0559 130.848 41.3412 130.624 40.4239 130.624H36.4559V135.584H40.4879ZM58.8297 125.12C59.4697 124.139 60.2697 123.371 61.2297 122.816C62.1897 122.24 63.2563 121.952 64.4297 121.952V127.744H62.9257C61.5603 127.744 60.5363 128.043 59.8537 128.64C59.171 129.216 58.8297 130.24 58.8297 131.712V140H53.3577V122.144H58.8297V125.12ZM67.2372 131.04C67.2372 129.205 67.5785 127.595 68.2612 126.208C68.9652 124.821 69.9145 123.755 71.1092 123.008C72.3038 122.261 73.6372 121.888 75.1092 121.888C76.2825 121.888 77.3492 122.133 78.3092 122.624C79.2905 123.115 80.0585 123.776 80.6132 124.608V116.32H86.0852V140H80.6132V137.44C80.1012 138.293 79.3652 138.976 78.4052 139.488C77.4665 140 76.3678 140.256 75.1092 140.256C73.6372 140.256 72.3038 139.883 71.1092 139.136C69.9145 138.368 68.9652 137.291 68.2612 135.904C67.5785 134.496 67.2372 132.875 67.2372 131.04ZM80.6132 131.072C80.6132 129.707 80.2292 128.629 79.4612 127.84C78.7145 127.051 77.7972 126.656 76.7092 126.656C75.6212 126.656 74.6932 127.051 73.9252 127.84C73.1785 128.608 72.8052 129.675 72.8052 131.04C72.8052 132.405 73.1785 133.493 73.9252 134.304C74.6932 135.093 75.6212 135.488 76.7092 135.488C77.7972 135.488 78.7145 135.093 79.4612 134.304C80.2292 133.515 80.6132 132.437 80.6132 131.072ZM98.1079 121.888C99.3666 121.888 100.465 122.144 101.404 122.656C102.364 123.168 103.1 123.84 103.612 124.672V122.144H109.084V139.968C109.084 141.611 108.753 143.093 108.092 144.416C107.452 145.76 106.46 146.827 105.116 147.616C103.793 148.405 102.14 148.8 100.156 148.8C97.5106 148.8 95.3666 148.171 93.7239 146.912C92.0812 145.675 91.1426 143.989 90.9079 141.856H96.3159C96.4866 142.539 96.8919 143.072 97.5319 143.456C98.1719 143.861 98.9612 144.064 99.8999 144.064C101.031 144.064 101.927 143.733 102.588 143.072C103.271 142.432 103.612 141.397 103.612 139.968V137.44C103.079 138.272 102.343 138.955 101.404 139.488C100.465 140 99.3666 140.256 98.1079 140.256C96.6359 140.256 95.3026 139.883 94.1079 139.136C92.9132 138.368 91.9639 137.291 91.2599 135.904C90.5772 134.496 90.2359 132.875 90.2359 131.04C90.2359 129.205 90.5772 127.595 91.2599 126.208C91.9639 124.821 92.9132 123.755 94.1079 123.008C95.3026 122.261 96.6359 121.888 98.1079 121.888ZM103.612 131.072C103.612 129.707 103.228 128.629 102.46 127.84C101.713 127.051 100.796 126.656 99.7079 126.656C98.6199 126.656 97.6919 127.051 96.9239 127.84C96.1772 128.608 95.8039 129.675 95.8039 131.04C95.8039 132.405 96.1772 133.493 96.9239 134.304C97.6919 135.093 98.6199 135.488 99.7079 135.488C100.796 135.488 101.713 135.093 102.46 134.304C103.228 133.515 103.612 132.437 103.612 131.072ZM116.883 140.256C115.923 140.256 115.133 139.979 114.515 139.424C113.917 138.848 113.619 138.144 113.619 137.312C113.619 136.459 113.917 135.744 114.515 135.168C115.133 134.592 115.923 134.304 116.883 134.304C117.821 134.304 118.589 134.592 119.187 135.168C119.805 135.744 120.115 136.459 120.115 137.312C120.115 138.144 119.805 138.848 119.187 139.424C118.589 139.979 117.821 140.256 116.883 140.256Z" fill="white"></path></svg>