<svg xmlns="http://www.w3.org/2000/svg" width="244" height="150" viewBox="0 0 244 150" fill="none"><path fill-rule="evenodd" clip-rule="evenodd" d="M86.6011 74.9141L94.095 70.3659V37.5177L86.6011 42.0659V74.9141ZM107.33 29.5128V63.4526H128.039V16.9598L107.33 29.5128ZM104.459 64.0995V31.2513L96.9655 35.7995V68.6477L104.459 64.0995ZM132.721 2.58743L77.1035 36.2846V85.9713H182V88.963H77.1035V100H74.2523V88.9832H63.8109V85.9915H74.2523V38.023L63.4256 44.5927L62 42.0052L74.2523 34.5866V20.8611H77.1035V32.8482L131.314 0L132.721 2.58743ZM130.891 76.0057H133.742V7.60057L142.295 12.7956V76.0259H145.147C145.147 53.2242 145.147 30.4225 145.147 7.62078L153.7 12.8159V76.0461H156.551C156.551 53.2444 156.551 30.4427 156.551 7.64099L165.105 12.8361V76.0663H172.233V79.058H83.7113V40.3477L130.852 11.7849V76.0057H130.891Z" fill="white"></path><path d="M2.84375 131.219V117.656H6.98438V131.219C6.98438 134.781 8.80729 136.562 12.4531 136.562C16.099 136.562 17.9219 134.781 17.9219 131.219V117.656H22.0625V131.219C22.0625 137.177 18.8594 140.156 12.4531 140.156C6.04688 140.156 2.84375 137.177 2.84375 131.219ZM27.6394 140V123.594H30.8425L31.3581 126C32.931 124.396 34.7227 123.594 36.7331 123.594C40.6185 123.594 42.5613 125.615 42.5613 129.656V140H38.4206V129.656C38.4206 127.844 37.5196 126.938 35.7175 126.938C34.3738 126.938 33.0613 127.474 31.78 128.547V140H27.6394ZM58.1538 127.875C57.2996 127.312 56.2267 127.031 54.935 127.031C52.3621 127.031 51.0756 128.474 51.0756 131.359C51.0756 134.786 52.4142 136.5 55.0913 136.5C56.1746 136.5 57.1954 136.349 58.1538 136.047V127.875ZM62.2944 139.016C59.784 139.672 57.3308 140 54.935 140C49.6329 140 46.9819 137.156 46.9819 131.469C46.9819 126.219 49.5756 123.594 54.7631 123.594C55.8673 123.594 56.9975 123.854 58.1538 124.375V117.656H62.2944V139.016ZM74.4025 123.594C79.3817 123.594 81.8712 126.135 81.8712 131.219C81.8712 131.896 81.8244 132.573 81.7306 133.25H70.84C70.84 135.562 72.5379 136.719 75.9337 136.719C77.59 136.719 79.2462 136.562 80.9025 136.25V139.531C79.4546 139.844 77.6942 140 75.6212 140C69.6733 140 66.6994 137.203 66.6994 131.609C66.6994 126.266 69.2671 123.594 74.4025 123.594ZM70.84 130.375H77.84V130.25C77.84 127.979 76.6942 126.844 74.4025 126.844C72.215 126.844 71.0275 128.021 70.84 130.375ZM86.2606 140V123.594H89.4638L89.9794 125.688C91.4169 124.292 92.9377 123.594 94.5419 123.594V126.938C93.0002 126.938 91.62 127.578 90.4013 128.859V140H86.2606ZM121.477 117.656V121.25H115.071V140H110.93V121.25H104.524V117.656H121.477ZM124.726 140V117.656H128.866V125.688C130.158 124.292 131.809 123.594 133.819 123.594C137.705 123.594 139.647 125.615 139.647 129.656V140H135.507V129.656C135.507 127.844 134.606 126.938 132.804 126.938C131.46 126.938 130.147 127.474 128.866 128.547V140H124.726ZM151.771 123.594C156.75 123.594 159.24 126.135 159.24 131.219C159.24 131.896 159.193 132.573 159.099 133.25H148.209C148.209 135.562 149.907 136.719 153.303 136.719C154.959 136.719 156.615 136.562 158.271 136.25V139.531C156.823 139.844 155.063 140 152.99 140C147.042 140 144.068 137.203 144.068 131.609C144.068 126.266 146.636 123.594 151.771 123.594ZM148.209 130.375H155.209V130.25C155.209 127.979 154.063 126.844 151.771 126.844C149.584 126.844 148.396 128.021 148.209 130.375ZM174.628 140H170.378L179.863 117.656H184.316L194.003 140H189.55L187.003 133.906H179.581L181.003 130.312H185.503L181.988 121.922L174.628 140ZM197.627 140V123.594H200.83L201.346 125.688C202.783 124.292 204.304 123.594 205.908 123.594V126.938C204.366 126.938 202.986 127.578 201.768 128.859V140H197.627ZM221.641 139.531C220.287 139.844 218.881 140 217.423 140C211.589 140 208.673 137.161 208.673 131.484C208.673 126.224 211.589 123.594 217.423 123.594C218.881 123.594 220.287 123.75 221.641 124.062V127.344C220.287 127.031 218.985 126.875 217.735 126.875C214.454 126.875 212.813 128.411 212.813 131.484C212.813 134.974 214.454 136.719 217.735 136.719C218.985 136.719 220.287 136.562 221.641 136.25V139.531ZM225.656 140V117.656H229.796V125.688C231.088 124.292 232.739 123.594 234.749 123.594C238.635 123.594 240.577 125.615 240.577 129.656V140H236.437V129.656C236.437 127.844 235.536 126.938 233.734 126.938C232.39 126.938 231.077 127.474 229.796 128.547V140H225.656Z" fill="white"></path></svg>