<svg xmlns="http://www.w3.org/2000/svg" width="130" height="151" viewBox="0 0 130 151" fill="none"><path fill-rule="evenodd" clip-rule="evenodd" d="M80.3098 104.699H88.9669V66.524L80.3098 61.0258V104.699ZM26.4152 14.6618V55.2547L30.2647 52.8176V12.2246L34.1144 9.78754V50.3804L37.964 47.9433V7.3309L41.8136 4.89376V45.4867L45.6633 43.0495V2.45662L47.5792 1.22832L49.4951 0L74.5087 15.8707L76.4247 17.0989V19.5361V38.3703L74.5087 37.1419V18.3078L49.4951 2.43714V45.4672V104.68H53.3447V47.9238L57.1944 50.3609V104.699H61.0439V52.8176L64.8936 55.2547V104.699H68.7431V57.6918L72.5928 60.129V70.9499V104.699H76.4425V58.5887V44.1999L101.456 28.3292V104.719H105.04V52.2716L111.302 56.249V104.719H130V107H0V104.719H18.6982V60.129L22.5478 57.6918V17.0989L26.4152 14.6618Z" fill="white"></path><path d="M18.0326 133.796L22.5629 119.856C22.7252 119.343 22.8063 118.87 22.8063 118.436C22.8063 118.003 22.7127 117.694 22.5255 117.51C22.3383 117.313 22.1136 117.181 21.8516 117.115C21.5895 117.036 21.3149 116.977 21.0279 116.938C20.7408 116.885 20.4975 116.76 20.2977 116.563V115.025H28.0481V116.504C27.8359 116.662 27.605 116.787 27.3554 116.879C27.1058 116.958 26.8562 117.056 26.6066 117.174C26.0075 117.49 25.6081 117.97 25.4085 118.614L19.1932 137.306L18.0326 133.796ZM18.6878 138.765L17.2463 143.043H14.0076L5.7332 118.574C5.42119 117.654 4.75973 117.069 3.74882 116.82C3.48673 116.754 3.23712 116.649 3 116.504V115.025H14.9062V116.465C14.6192 116.583 14.3197 116.682 14.0076 116.76C13.6956 116.839 13.4023 116.938 13.1278 117.056C12.5038 117.319 12.1918 117.733 12.1918 118.298C12.1918 118.627 12.3665 119.324 12.7159 120.388L18.6878 138.765ZM37.4083 140.973C39.9168 140.842 41.6017 139.383 42.4628 136.596L44.1851 137.424C43.2491 141.039 40.9902 143.011 37.4083 143.339V140.973ZM36.8467 122.833C39.4176 123.03 41.3459 124.108 42.6313 126.067C43.7796 127.802 44.3536 130.122 44.3536 133.027H34.7126V131.016H38.5877C38.5877 129.333 38.4629 128.006 38.2133 127.033C37.9762 126.047 37.5206 125.436 36.8467 125.199V122.833ZM35.7422 143.339C33.034 143.116 30.8499 142.005 29.19 140.007C27.6425 138.154 26.8687 135.873 26.8687 133.165C26.8687 130.326 27.6487 127.94 29.2087 126.008C30.7563 124.075 32.7469 123.017 35.1806 122.833V125.199C34.3569 125.502 33.7765 126.317 33.4396 127.644C33.1151 128.972 32.9528 130.47 32.9528 132.14C32.9528 133.796 32.9903 135.038 33.0652 135.866C33.1525 136.681 33.3023 137.417 33.5145 138.075C33.9512 139.455 34.6938 140.421 35.7422 140.973V143.339ZM58.1881 126.658C57.614 126.658 57.0274 127.335 56.4284 128.689L56.316 124.923C57.3394 123.53 58.6499 122.833 60.2474 122.833C61.1833 122.833 61.9821 123.195 62.6437 123.918C63.2673 124.601 63.5794 125.396 63.5794 126.304C63.5794 127.263 63.3177 128.071 62.7935 128.729C62.2442 129.425 61.5453 129.774 60.6967 129.774C59.8355 129.774 59.1803 129.439 58.731 128.768C58.369 128.203 58.1881 127.5 58.1881 126.658ZM54.4815 123.228C54.7435 126.33 54.8746 129.82 54.8746 133.698V139.534C54.8746 140.231 55.1803 140.723 55.7918 141.013C56.0664 141.144 56.366 141.262 56.6904 141.368C57.0274 141.473 57.3581 141.611 57.6826 141.782V143.043H46.8435V141.782C47.0806 141.611 47.3427 141.486 47.6297 141.407C47.9168 141.328 48.1851 141.236 48.4347 141.131C49.0213 140.881 49.3146 140.415 49.3146 139.731V126.658C49.3146 125.935 49.0213 125.456 48.4347 125.219C48.1851 125.127 47.9168 125.048 47.6297 124.982C47.3427 124.917 47.0806 124.792 46.8435 124.608V123.228H54.4815ZM72.3407 116.524V143.339H72.1909C70.3566 143.339 68.9895 142.971 68.0909 142.235C67.2049 141.499 66.7622 140.303 66.7622 138.647V125.397H64.2726V123.819C64.4595 123.609 64.6967 123.451 64.9836 123.346C65.2832 123.241 65.5827 123.129 65.8822 123.011C66.6185 122.722 67.0863 122.248 67.2864 121.591C67.9478 119.672 68.466 118.443 68.8398 117.904C69.2148 117.352 69.5455 116.905 69.8324 116.563L72.3407 116.524ZM74.0072 140.973C75.0178 140.973 75.7289 140.631 76.1411 139.948C76.316 139.645 76.4532 139.304 76.5532 138.923C76.6527 138.528 76.7653 138.134 76.8899 137.74L78.4061 138.371C78.094 139.895 77.7076 140.947 77.2457 141.525C76.7839 142.09 76.3034 142.505 75.8044 142.767C75.3174 143.03 74.7183 143.221 74.0072 143.339V140.973ZM74.0072 123.228H77.3763V125.397H74.0072V123.228ZM90.1626 126.658C89.5887 126.658 89.0022 127.335 88.4032 128.689L88.2905 124.923C89.3143 123.53 90.6245 122.833 92.2221 122.833C93.1579 122.833 93.957 123.195 94.6184 123.918C95.242 124.601 95.5541 125.396 95.5541 126.304C95.5541 127.263 95.2923 128.071 94.7681 128.729C94.2188 129.425 93.5197 129.774 92.6714 129.774C91.81 129.774 91.1546 129.439 90.7053 128.768C90.3435 128.203 90.1626 127.5 90.1626 126.658ZM86.4562 123.228C86.718 126.33 86.8492 129.82 86.8492 133.698V139.534C86.8492 140.231 87.1547 140.723 87.7664 141.013C88.0413 141.144 88.3409 141.262 88.6649 141.368C89.0022 141.473 89.3329 141.611 89.657 141.782V143.043H78.8183V141.782C79.0555 141.611 79.3173 141.486 79.6042 141.407C79.8912 141.328 80.1595 141.236 80.4093 141.131C80.9958 140.881 81.2894 140.415 81.2894 139.731V126.658C81.2894 125.935 80.9958 125.456 80.4093 125.219C80.1595 125.127 79.8912 125.048 79.6042 124.982C79.3173 124.917 79.0555 124.792 78.8183 124.608V123.228H86.4562ZM104.446 139.731C104.446 140.415 104.746 140.881 105.345 141.131C105.595 141.236 105.863 141.328 106.15 141.407C106.437 141.486 106.706 141.611 106.955 141.782V143.043H96.4155V141.782C96.6528 141.611 96.9146 141.486 97.2015 141.407C97.4885 141.328 97.7568 141.236 98.0066 141.131C98.5931 140.881 98.8866 140.415 98.8866 139.731V126.658C98.8866 125.949 98.5931 125.482 98.0066 125.259C97.7568 125.153 97.4885 125.068 97.2015 125.002C96.9146 124.923 96.6528 124.792 96.4155 124.608V123.228H104.446V139.731ZM101.339 120.881C100.865 120.881 100.434 120.789 100.047 120.605C99.66 120.421 99.3293 120.171 99.055 119.856C98.4811 119.199 98.1935 118.397 98.1935 117.45C98.1935 116.53 98.4811 115.728 99.055 115.045C99.654 114.348 100.415 114 101.339 114C102.275 114 103.042 114.348 103.641 115.045C104.216 115.728 104.503 116.53 104.503 117.45C104.503 118.397 104.216 119.199 103.641 119.856C103.042 120.54 102.275 120.881 101.339 120.881ZM117.439 125.199C115.929 125.778 115.173 128.413 115.173 133.106C115.173 135.42 115.342 137.227 115.679 138.528C116.028 139.816 116.615 140.631 117.439 140.973V143.339C114.955 143.129 112.908 142.077 111.299 140.185C109.676 138.278 108.865 135.939 108.865 133.165C108.865 130.444 109.676 128.098 111.299 126.126C112.958 124.141 115.005 123.044 117.439 122.833V125.199ZM121.388 133.106C121.388 128.413 120.627 125.778 119.105 125.199V122.833C121.576 123.044 123.622 124.141 125.245 126.126C126.867 128.098 127.679 130.444 127.679 133.165C127.679 135.939 126.867 138.278 125.245 140.185C123.635 142.077 121.588 143.129 119.105 143.339V140.973C119.929 140.644 120.515 139.836 120.864 138.548C121.214 137.247 121.388 135.433 121.388 133.106Z" fill="white"></path></svg>