<svg xmlns="http://www.w3.org/2000/svg" width="150" height="165" viewBox="0 0 150 165" fill="none"><path d="M70.2325 116.974C98.8522 116.974 122.053 93.6601 122.053 64.9005C122.053 36.1409 98.8522 12.8267 70.2325 12.8267C41.6129 12.8267 18.4121 36.1409 18.4121 64.9005C18.4121 93.6601 41.6129 116.974 70.2325 116.974Z" stroke="white" stroke-width="3.56075"></path><path d="M75.5902 58.7747C75.5902 60.0674 75.9528 61.4894 76.6778 63.0406C77.4263 64.5919 77.8005 66.0256 77.8005 67.3418C77.8005 68.94 77.0988 70.4913 75.6955 71.9955C74.3155 73.4763 73.415 74.2167 72.994 74.2167L72.8537 74.0756L73.0642 73.7935C73.8828 72.9239 74.2921 72.0073 74.2921 71.0436C74.2921 69.7275 73.9764 68.2114 73.3449 66.4956C72.7134 64.7564 72.3976 63.3344 72.3976 62.2298C72.3976 61.0546 72.69 59.8559 73.2747 58.6337L73.415 58.3164C74.0699 57.2353 74.8067 56.3656 75.6253 55.7075C76.4673 55.0494 76.9585 54.7204 77.0988 54.7204L77.3093 54.8614L77.0988 55.0729C76.1633 55.872 75.6604 56.9532 75.5902 58.3164V58.7747ZM73.2747 58.6337C71.6374 58.7277 69.9651 58.9863 68.2577 59.4093C68.2577 59.6444 68.0823 59.7619 67.7314 59.7619C67.521 59.7619 67.3806 59.6914 67.3104 59.5503L66.9596 59.6209C66.8661 59.9735 66.6672 60.1497 66.3632 60.1497C66.1293 60.1497 65.9655 60.0204 65.872 59.7619C65.7785 59.8089 65.6615 59.8324 65.5212 59.8324C65.5212 60.326 65.1118 60.5727 64.2932 60.5727C63.9891 60.5727 63.5798 60.6668 63.0653 60.8548L62.9951 60.7138C62.9951 60.5257 63.0887 60.3847 63.2758 60.2908C63.4629 60.1732 63.5681 60.0439 63.5915 59.9029H62.3636C62.27 60.1614 62.0712 60.2908 61.7671 60.2908C61.5099 60.2908 61.3228 60.1379 61.2058 59.8324L60.6445 59.7619C60.6445 59.9264 60.4925 60.0087 60.1884 60.0087C59.9077 60.0087 59.7674 59.8794 59.7674 59.6209C57.6389 59.2213 55.9198 58.575 54.6101 57.6818V58.1049C54.6101 60.3612 55.0076 62.4296 55.8029 64.3098C57.5337 63.7458 59.3113 63.4637 61.1356 63.4637C64.0359 63.4637 66.4684 63.9573 68.4331 64.9444C70.4212 65.9081 71.8362 67.0245 72.6782 68.2937C73.5437 69.5629 73.9764 70.3621 73.9764 70.6911L73.836 70.8321L73.6606 70.5148C71.5322 66.1901 67.4742 64.0278 61.4865 64.0278C59.6153 64.0278 57.8495 64.3451 56.1888 64.9797C56.8437 66.1078 57.6741 67.142 58.6798 68.0822C59.3815 67.8941 60.13 67.8001 60.9251 67.8001C62.5624 67.8001 64.0476 68.1292 65.3808 68.7873C66.714 69.4454 67.3806 69.8802 67.3806 70.0918L67.2403 70.2327L66.9245 70.0565C65.0533 68.7873 63.0302 68.1527 60.855 68.1527C60.4106 68.1527 59.8025 68.1997 59.0306 68.2937C61.8373 70.4091 65.5328 71.4667 70.1171 71.4667L70.9241 71.5725L69.7312 71.6782C65.1937 71.6782 61.5099 70.5735 58.6798 68.3642C56.832 68.8108 55.3468 69.6569 54.2241 70.9026C53.1248 72.1248 52.5752 73.5233 52.5752 75.098C52.5752 77.1898 53.4405 78.7529 55.1714 79.787C55.2883 79.8575 55.4989 79.9515 55.8029 80.069C56.5279 80.351 57.3934 80.4921 58.3991 80.4921C59.6621 80.4921 60.8901 80.0925 62.0829 79.2934L62.4338 79.1172L62.6443 79.1876C62.6443 79.3757 62.1531 79.7282 61.1708 80.2453C60.1884 80.7388 59.2178 80.9857 58.2588 80.9857C57.253 80.9857 56.2941 80.7977 55.3819 80.4216L54.8206 80.2101C52.809 79.0348 51.8034 77.2956 51.8034 74.9923C51.8034 73.4645 52.3997 72.0778 53.5926 70.8321C54.7855 69.5864 56.3643 68.6933 58.3289 68.1527C57.253 67.1655 56.4111 66.1548 55.8029 65.1207C53.2067 66.1078 51.1719 67.5651 49.6983 69.4924C48.2247 71.4197 47.488 73.5703 47.488 75.9442C47.488 78.6705 48.3885 80.8917 50.1895 82.6074C51.9904 84.3232 54.3879 85.1811 57.3817 85.1811C60.9135 85.1811 64.071 83.9707 66.8543 81.5498L67.1701 81.303L67.2403 81.4439C67.2403 81.585 66.7959 82.0316 65.9071 82.7837C65.0183 83.5358 63.7787 84.2056 62.1882 84.7933C60.5977 85.4044 58.8552 85.7099 56.9606 85.7099C54.1072 85.7099 51.6513 84.7463 49.593 82.8189C47.5582 80.8917 46.5408 78.5765 46.5408 75.8736C46.5408 73.3352 47.336 71.0436 48.9265 68.9988C50.5169 66.954 52.6922 65.438 55.4521 64.4509C54.5867 62.641 54.154 60.5257 54.154 58.1049V57.3997C51.4174 55.449 50.0491 52.511 50.0491 48.5859C50.0491 45.4834 51.4759 42.6748 54.3294 40.1599C57.1829 37.645 60.3872 36.3875 63.9423 36.3875C65.5796 36.3875 67.0181 36.5285 68.2577 36.8106C69.3102 34.9068 70.737 33.4495 72.5379 32.4389C74.3623 31.4048 76.4089 30.8877 78.6776 30.8877C81.7416 30.8877 84.4548 31.9453 86.8171 34.0606C89.1794 36.1525 90.3606 38.6556 90.3606 41.5701C90.3606 43.7794 89.6472 45.6127 88.2204 47.07C93.5298 51.0655 96.1845 55.6605 96.1845 60.8548C96.1845 65.25 95.015 69.3161 92.6761 73.0532C94.3835 74.2519 95.705 75.7444 96.6406 77.5306C97.5997 79.2934 98.0787 81.1502 98.0787 83.101C98.0787 87.0026 96.3248 90.2696 92.8164 92.9022C89.3314 95.5577 85.3552 96.8862 80.8879 96.8862C74.9002 96.8862 70.3744 95.3699 67.3104 92.3382C65.7901 92.9255 64.2348 93.2191 62.6443 93.2191C60.8667 93.2191 59.3464 92.9375 58.0834 92.3735C56.8203 91.8326 56.1888 91.433 56.1888 91.1745L56.3292 91.0335L56.6099 91.1745C58.2705 92.1381 60.282 92.6198 62.6443 92.6198C64.071 92.6198 65.5094 92.4088 66.9596 91.9854C66.3982 91.3508 65.872 90.5046 65.3808 89.4469L65.5212 89.306L65.6615 89.5175C66.1293 90.3871 66.6789 91.1627 67.3104 91.8443C69.6962 91.0217 71.4152 89.9053 72.4678 88.4951C71.6726 87.837 71.2749 87.0026 71.2749 85.9919C71.2749 84.9342 71.6258 84.4055 72.3274 84.4055C72.725 84.4055 73.0525 84.5935 73.3097 84.9696C73.5671 85.3456 73.6957 85.8274 73.6957 86.415C73.6957 87.0496 73.4618 87.7194 72.994 88.4246C74.3506 89.4117 76.2451 90.0228 78.6776 90.2579C78.7244 90.0463 78.8881 89.9406 79.1688 89.9406C79.4027 89.9406 79.5431 90.0463 79.5898 90.2579H79.9406C79.9406 89.9053 80.1394 89.729 80.5371 89.729C80.8411 89.729 81.0282 89.8818 81.0984 90.1874L81.765 90.1168C81.4609 90.0463 81.3089 89.8701 81.3089 89.588C81.3089 89.3764 81.5077 89.2237 81.9053 89.1297C82.3264 89.0591 82.5953 89.0239 82.7123 89.0239C82.993 89.0239 83.1332 89.1414 83.1332 89.3764C83.2034 89.588 83.1216 89.729 82.8877 89.7995L83.4841 89.588C83.4841 89.259 83.6713 89.0944 84.0454 89.0944C84.256 89.0944 84.4314 89.165 84.5717 89.306L84.8524 89.165C84.8524 88.8829 85.0161 88.7418 85.3436 88.7418L85.6243 88.8124C88.735 87.2611 90.2904 84.9931 90.2904 82.0081C90.2904 80.8094 89.8577 79.787 88.9923 78.9408C88.1503 78.0947 87.1212 77.6717 85.9049 77.6717C84.7589 77.6717 83.7414 78.0595 82.8526 78.8351C81.9872 79.6107 81.5545 80.5274 81.5545 81.585C81.5545 82.3606 81.9053 82.7484 82.6071 82.7484C83.0046 82.7484 83.2034 82.9365 83.2034 83.3125C83.2034 83.5946 82.9812 83.7356 82.5369 83.7356C82.1626 83.7356 81.8469 83.524 81.5896 83.101C81.3557 82.7014 81.2388 82.1961 81.2388 81.585C81.2388 80.5039 81.7065 79.5167 82.6421 78.6235C83.5777 77.7069 84.6653 77.2486 85.9049 77.2486C87.2615 77.2486 88.3958 77.7069 89.308 78.6235C90.2202 79.5402 90.6763 80.6684 90.6763 82.0081C90.6763 85.1341 89.0391 87.5197 85.7645 89.165C85.7645 89.4469 85.6009 89.588 85.2734 89.588C85.133 89.588 85.0161 89.541 84.9225 89.4469L84.6419 89.588C84.6419 89.9876 84.4431 90.1874 84.0454 90.1874C83.8349 90.1874 83.6713 90.0815 83.5543 89.8701C83.3204 89.9171 83.1566 89.9641 83.0631 90.0111C83.2502 90.1285 83.3438 90.3166 83.3438 90.5752C83.3438 90.7632 82.8877 90.9395 81.9755 91.104C81.6715 91.104 81.5194 90.963 81.5194 90.6809C81.5194 90.4929 81.6013 90.3754 81.765 90.3284L81.0984 90.3989C81.0282 90.6809 80.8411 90.8219 80.5371 90.8219C80.3032 90.8219 80.1394 90.7279 80.0459 90.5399H79.5898C79.5197 90.7279 79.3559 90.8219 79.0986 90.8219C78.8648 90.8219 78.7244 90.7279 78.6776 90.5399C76.2685 90.3989 74.3039 89.7995 72.7835 88.7418C71.6842 90.105 69.9768 91.2568 67.6613 92.1969C70.3978 94.688 74.374 95.9339 79.5898 95.9339C84.4782 95.9339 88.6648 94.7001 92.1499 92.2323C95.6582 89.7877 97.4124 86.603 97.4124 82.6779C97.4124 81.0092 96.9797 79.3404 96.1143 77.6717C95.2723 75.9794 94.0561 74.5575 92.4656 73.4057C91.2961 75.098 90.5944 75.9442 90.3606 75.9442L90.2202 75.8031C91.0623 74.8629 91.7405 74.0168 92.2551 73.2647C90.8751 72.3246 89.2145 71.6782 87.2732 71.3256C86.244 71.1377 85.4605 71.0436 84.9225 71.0436H84.6419C81.1802 71.0436 78.0227 72.2423 75.1692 74.6397L74.9236 74.7807L74.7833 74.6397C76.7714 73.0884 78.5373 72.0307 80.081 71.4667C81.6481 70.9026 83.3087 70.6205 85.0629 70.6205C85.7879 70.6205 86.63 70.7146 87.5889 70.9026C89.4834 71.2786 91.109 71.972 92.4656 72.9827C94.6642 69.3161 95.7634 65.2735 95.7634 60.8548C95.7634 58.4339 95.0618 56.0483 93.6584 53.698C92.2551 51.3476 90.2787 49.2793 87.7293 47.493C86.5598 48.5037 85.1448 49.009 83.4841 49.009C81.6831 49.009 80.2096 48.4919 79.0636 47.4578C77.9408 46.4236 77.3795 45.1191 77.3795 43.5443C76.3737 43.3799 75.3681 43.2976 74.3623 43.2976C73.0525 43.2976 71.6374 43.4269 70.1171 43.6854C70.585 44.32 70.8188 44.9664 70.8188 45.6244C70.8188 46.8231 70.3393 47.4225 69.3804 47.4225C68.8658 47.4225 68.3864 47.1522 67.9419 46.6116C67.4976 46.0711 67.1701 45.3307 66.9596 44.3905C63.2407 45.4952 60.2234 47.3519 57.908 49.9609L57.6975 50.2429C55.8497 52.4053 54.8206 54.7439 54.6101 57.2588C56.2473 58.2929 57.9898 58.9863 59.8375 59.3388C59.9077 59.1978 60.048 59.1273 60.2586 59.1273C60.4925 59.1273 60.6445 59.2448 60.7147 59.4798C60.9485 59.4798 61.1123 59.5033 61.2058 59.5503C61.3696 59.3153 61.5567 59.1978 61.7671 59.1978C62.0712 59.1978 62.27 59.3388 62.3636 59.6209H63.5915C63.0536 59.3623 62.7846 59.1508 62.7846 58.9863L62.8547 58.8452C63.2056 58.9628 63.498 59.0215 63.7319 59.0215C63.8488 59.0215 64.0009 59.0098 64.188 58.9863C64.3984 58.9393 64.5856 58.9158 64.7493 58.9158C65.2171 58.9158 65.4744 59.1273 65.5212 59.5503H65.8018C65.8018 59.2213 65.9889 59.0568 66.3632 59.0568C66.6204 59.0568 66.7959 59.1743 66.8895 59.4093L67.3104 59.3388C67.3104 59.0568 67.4742 58.9158 67.8016 58.9158C68.0355 58.9158 68.1875 58.9863 68.2577 59.1273C70.5732 58.6572 72.2923 58.3869 73.415 58.3164C74.2805 58.2694 75.0055 58.2694 75.5902 58.3164C78.0695 58.5515 80.0576 59.3623 81.5545 60.749C83.0748 62.1358 83.8349 63.7575 83.8349 65.6143C83.8349 66.7894 83.5192 67.8236 82.8877 68.7168C82.2562 69.5864 81.5428 70.0213 80.7476 70.0213C80.4201 70.0213 80.1044 69.9272 79.8003 69.7392C79.5197 69.5511 79.3793 69.3397 79.3793 69.1046C79.3793 68.705 79.5431 68.5052 79.8705 68.5052C80.081 68.5052 80.1862 68.6228 80.1862 68.8578C80.1862 69.4454 80.4201 69.7392 80.8879 69.7392C81.5194 69.7392 82.1042 69.3514 82.6421 68.5757C83.2034 67.8001 83.4841 66.7894 83.4841 65.5438C83.4841 63.7105 82.7473 62.1475 81.2738 60.8548C79.8003 59.5621 77.9058 58.8217 75.5902 58.6337C74.9587 58.5867 74.1869 58.5867 73.2747 58.6337ZM56.9606 47.5635C56.9606 45.9652 57.7559 44.5668 59.3464 43.3681C60.9602 42.1694 62.7495 41.5701 64.7142 41.5701C65.5094 41.5701 66.2111 41.6406 66.8193 41.7816C66.9362 40.1599 67.3338 38.6203 68.0121 37.1631C66.7257 36.9281 65.4159 36.8106 64.0827 36.8106C60.5509 36.8106 57.4051 38.0328 54.6451 40.4772C51.8852 42.9216 50.5052 45.7655 50.5052 49.009C50.5052 52.417 51.7448 55.0612 54.2241 56.9415C54.5048 54.3561 55.5573 51.9587 57.3817 49.7493L57.6273 49.5378C60.0364 46.7409 63.1004 44.7196 66.8193 43.4738V42.1694C66.3047 41.9579 65.6264 41.8521 64.7844 41.8521C62.8431 41.8521 61.1006 42.4279 59.5569 43.5796C58.0132 44.7313 57.2414 46.0593 57.2414 47.5635L57.101 48.1276L56.9606 47.5635ZM87.2732 71.3256C86.3844 72.6184 84.9576 73.9581 82.993 75.3448C81.0516 76.708 77.6953 78.4473 72.9238 80.5626C71.1931 81.3382 70.0119 82.2314 69.3804 83.2421L69.24 83.383L69.0295 83.2421C69.0295 82.9835 69.3219 82.5251 69.9066 81.8671C69.9066 81.538 69.1699 80.8447 67.6964 79.787C66.2228 78.7294 64.4686 78.2005 62.4338 78.2005C59.6739 78.2005 57.4635 78.8233 55.8029 80.069C55.6392 80.1866 55.4989 80.304 55.3819 80.4216C54.9609 80.8212 54.5048 81.3735 54.0136 82.0786L53.8733 81.9376C53.8733 81.6085 54.1891 81.0327 54.8206 80.2101L55.1714 79.787C57.3934 76.896 60.5275 75.4505 64.5739 75.4505C68.2694 75.4505 71.2281 76.708 73.4501 79.2229L73.7658 79.5754C73.9998 79.5754 75.6721 78.7529 78.7829 77.1076C81.917 75.4623 83.9636 73.441 84.9225 71.0436L85.0629 70.6205C85.671 69.0928 85.9751 67.142 85.9751 64.7681C85.9751 61.5011 85.0278 58.7982 83.1332 56.6594C81.2388 54.4971 78.8648 53.4159 76.0112 53.4159C74.795 53.4159 73.2981 53.6274 71.5205 54.0505C69.7429 54.4501 68.1992 54.6498 66.8895 54.6498C64.9715 54.6498 63.1472 54.262 61.4163 53.4864C59.6855 52.6873 58.4459 51.6062 57.6975 50.2429L57.3817 49.7493C57.101 49.0912 56.9606 48.3626 56.9606 47.5635L57.101 46.9994L57.2414 47.5635C57.2414 48.1746 57.37 48.8327 57.6273 49.5378L57.908 49.9609C58.7265 51.3006 60.3287 51.9705 62.7145 51.9705C64.071 51.9705 66.141 51.6179 68.9243 50.9128C71.7076 50.1842 73.9764 49.8198 75.7306 49.8198C79.7301 49.8198 83.0397 51.1125 85.6593 53.698C88.2789 56.2598 89.5887 59.4681 89.5887 63.3227C89.5887 66.2137 88.9221 68.7403 87.5889 70.9026L87.2732 71.3256ZM72.7134 88.1426C73.0408 87.4609 73.2045 86.8146 73.2045 86.2035C73.2045 85.8509 73.111 85.5454 72.9238 85.2868C72.7368 85.0283 72.5146 84.899 72.2573 84.899C72.1169 84.899 71.9883 85.0166 71.8713 85.2515C71.7544 85.5101 71.6959 85.8039 71.6959 86.133C71.6959 86.9556 72.0351 87.6254 72.7134 88.1426ZM87.9397 46.8584C89.3198 45.5187 90.0097 43.7324 90.0097 41.4996C90.0097 38.8672 88.8987 36.5873 86.6767 34.66C84.4782 32.7327 81.765 31.7691 78.5373 31.7691C76.3855 31.7691 74.4441 32.2156 72.7134 33.1087C71.0059 33.9784 69.661 35.2359 68.6787 36.8811C71.041 37.4217 72.8303 38.1621 74.0465 39.1022C75.2628 40.0188 75.8709 40.5829 75.8709 40.7945L75.7306 40.865L75.485 40.6534C73.5203 38.9846 71.1813 37.8447 68.4682 37.2336C67.7665 38.7379 67.3806 40.3126 67.3104 41.9579C68.0589 42.1694 68.6787 42.4514 69.1699 42.804C70.6434 42.4279 72.3742 42.24 74.3623 42.24C75.4616 42.24 76.4907 42.3339 77.4497 42.522C77.6602 41.1352 78.1864 40.0071 79.0284 39.1375C79.8705 38.2678 80.8294 37.833 81.9053 37.833C82.6538 37.833 83.2853 38.0681 83.7999 38.5381C84.3144 38.9846 84.5717 39.5135 84.5717 40.1246C84.5717 41.2763 84.0688 41.8521 83.0631 41.8521C82.3848 41.8521 82.0456 41.5936 82.0456 41.0765C82.0456 40.7944 82.186 40.6534 82.4667 40.6534C82.7473 40.6534 82.8994 40.8062 82.9228 41.1117C82.9462 41.4173 83.0631 41.5701 83.2736 41.5701C83.9285 41.5701 84.256 41.1 84.256 40.1599C84.256 39.5958 84.0221 39.1257 83.5543 38.7497C83.1099 38.3736 82.5369 38.1855 81.8352 38.1855C80.8528 38.1855 79.9758 38.5968 79.2039 39.4195C78.4555 40.2421 77.9876 41.2998 77.8005 42.5925C81.4259 43.2036 84.8056 44.6256 87.9397 46.8584ZM68.6086 42.9451C68.2577 42.663 67.825 42.4514 67.3104 42.3104V43.2976C67.8718 43.1095 68.3045 42.9921 68.6086 42.9451ZM87.4135 47.3519C84.4197 45.3542 81.192 44.1085 77.7304 43.6149C77.7771 45.1426 78.3501 46.3648 79.4495 47.2814C80.5487 48.1981 81.8936 48.6564 83.4841 48.6564C84.9343 48.6564 86.244 48.2216 87.4135 47.3519ZM67.3806 44.2495C67.5443 45.1896 67.8133 45.9065 68.1875 46.4001C68.5618 46.8936 68.9594 47.1405 69.3804 47.1405C69.661 47.1405 69.8949 47.0111 70.0821 46.7527C70.2925 46.4941 70.3978 46.212 70.3978 45.9065C70.3978 45.1074 70.1171 44.3905 69.5558 43.7559C68.5968 43.944 67.8718 44.1085 67.3806 44.2495Z" fill="white"></path><path d="M16.3578 147.323C16.3578 146.507 16.0689 145.879 15.4911 145.437C14.9219 144.995 13.8896 144.549 12.3943 144.099C10.8989 143.648 9.70943 143.147 8.82582 142.595C7.13506 141.533 6.28968 140.148 6.28968 138.44C6.28968 136.945 6.89716 135.713 8.11213 134.744C9.33559 133.776 10.9201 133.291 12.8658 133.291C14.1572 133.291 15.3085 133.529 16.3195 134.005C17.3306 134.481 18.125 135.16 18.7027 136.044C19.2805 136.919 19.5694 137.892 19.5694 138.963H16.3578C16.3578 137.994 16.0519 137.238 15.4402 136.694C14.8369 136.142 13.9703 135.866 12.8403 135.866C11.7868 135.866 10.9669 136.091 10.3806 136.541C9.80289 136.991 9.51402 137.62 9.51402 138.427C9.51402 139.107 9.82838 139.676 10.4571 140.135C11.0858 140.585 12.1224 141.027 13.5667 141.46C15.0111 141.885 16.1708 142.374 17.046 142.926C17.9211 143.47 18.5625 144.099 18.9704 144.812C19.3782 145.517 19.5821 146.346 19.5821 147.297C19.5821 148.844 18.9874 150.076 17.7979 150.993C16.6169 151.902 15.0111 152.357 12.9805 152.357C11.6381 152.357 10.4019 152.111 9.27187 151.618C8.15036 151.116 7.27525 150.428 6.64652 149.553C6.02629 148.678 5.71618 147.658 5.71618 146.495H8.94052C8.94052 147.548 9.28886 148.364 9.98556 148.941C10.6823 149.519 11.6806 149.808 12.9805 149.808C14.102 149.808 14.9431 149.583 15.5039 149.133C16.0731 148.674 16.3578 148.071 16.3578 147.323ZM26.068 138.313L26.1572 139.753C27.1258 138.623 28.4512 138.058 30.1335 138.058C31.9771 138.058 33.2388 138.763 33.9185 140.173C34.9211 138.763 36.3315 138.058 38.1497 138.058C39.6705 138.058 40.8005 138.478 41.5397 139.319C42.2874 140.161 42.6697 141.401 42.6867 143.041V152.102H39.5898V143.13C39.5898 142.255 39.3986 141.613 39.0163 141.206C38.634 140.798 38.001 140.594 37.1174 140.594C36.4122 140.594 35.8345 140.785 35.3842 141.167C34.9423 141.541 34.6322 142.034 34.4538 142.646L34.4666 152.102H31.3697V143.028C31.3272 141.405 30.4988 140.594 28.8845 140.594C27.644 140.594 26.7647 141.099 26.2464 142.11V152.102H23.1495V138.313H26.068ZM55.1497 152.102C55.0138 151.839 54.8948 151.41 54.7929 150.815C53.8073 151.843 52.6008 152.357 51.1735 152.357C49.7886 152.357 48.6586 151.962 47.7834 151.172C46.9083 150.382 46.4708 149.404 46.4708 148.24C46.4708 146.771 47.0145 145.645 48.1021 144.863C49.1981 144.073 50.7614 143.678 52.792 143.678H54.6909V142.773C54.6909 142.059 54.4913 141.49 54.0919 141.065C53.6926 140.632 53.0851 140.415 52.2695 140.415C51.5643 140.415 50.9865 140.594 50.5362 140.951C50.0859 141.299 49.8608 141.745 49.8608 142.289H46.7639C46.7639 141.533 47.0145 140.827 47.5158 140.173C48.0171 139.511 48.6968 138.992 49.5549 138.618C50.4215 138.245 51.3859 138.058 52.4479 138.058C54.0622 138.058 55.3494 138.466 56.3095 139.281C57.2695 140.088 57.7623 141.227 57.7878 142.697V148.916C57.7878 150.156 57.962 151.146 58.3103 151.885V152.102H55.1497ZM51.747 149.872C52.3587 149.872 52.9322 149.723 53.4675 149.426C54.0112 149.128 54.419 148.729 54.6909 148.228V145.628H53.0214C51.8744 145.628 51.012 145.828 50.4343 146.227C49.8565 146.626 49.5677 147.191 49.5677 147.922C49.5677 148.517 49.7631 148.992 50.1539 149.349C50.5532 149.698 51.0843 149.872 51.747 149.872ZM69.295 141.142C68.8872 141.074 68.4666 141.04 68.0333 141.04C66.6144 141.04 65.6586 141.584 65.1658 142.671V152.102H62.0689V138.313H65.0256L65.1021 139.855C65.8498 138.657 66.8863 138.058 68.2117 138.058C68.6535 138.058 69.0189 138.117 69.3077 138.236L69.295 141.142ZM76.8132 134.961V138.313H79.2474V140.607H76.8132V148.304C76.8132 148.831 76.9151 149.213 77.119 149.451C77.3315 149.681 77.7053 149.795 78.2406 149.795C78.5974 149.795 78.9585 149.753 79.3238 149.668V152.064C78.6186 152.259 77.9389 152.357 77.2847 152.357C74.9058 152.357 73.7163 151.044 73.7163 148.419V140.607H71.4478V138.313H73.7163V134.961H76.8132ZM100.898 147.782H93.7102L92.2064 152.102H88.8546L95.864 133.546H98.757L105.779 152.102H102.415L100.898 147.782ZM94.6151 145.182H99.9932L97.3042 137.484L94.6151 145.182ZM115.859 141.142C115.451 141.074 115.031 141.04 114.597 141.04C113.178 141.04 112.223 141.584 111.73 142.671V152.102H108.633V138.313H111.59L111.666 139.855C112.414 138.657 113.45 138.058 114.776 138.058C115.218 138.058 115.583 138.117 115.872 138.236L115.859 141.142ZM124.269 149.885C125.042 149.885 125.684 149.659 126.194 149.209C126.703 148.759 126.975 148.202 127.009 147.54H129.928C129.894 148.398 129.626 149.201 129.125 149.948C128.624 150.687 127.944 151.274 127.086 151.707C126.228 152.14 125.302 152.357 124.308 152.357C122.379 152.357 120.85 151.732 119.72 150.484C118.59 149.235 118.025 147.51 118.025 145.309V144.991C118.025 142.892 118.585 141.214 119.707 139.957C120.828 138.691 122.358 138.058 124.295 138.058C125.935 138.058 127.268 138.538 128.297 139.498C129.333 140.449 129.877 141.703 129.928 143.257H127.009C126.975 142.467 126.703 141.817 126.194 141.308C125.692 140.798 125.051 140.543 124.269 140.543C123.267 140.543 122.494 140.908 121.95 141.639C121.406 142.361 121.13 143.461 121.121 144.94V145.437C121.121 146.932 121.389 148.049 121.924 148.789C122.468 149.519 123.25 149.885 124.269 149.885ZM136.363 139.816C137.374 138.644 138.652 138.058 140.199 138.058C143.139 138.058 144.63 139.736 144.672 143.092V152.102H141.575V143.206C141.575 142.255 141.367 141.584 140.951 141.193C140.543 140.794 139.94 140.594 139.141 140.594C137.901 140.594 136.974 141.146 136.363 142.251V152.102H133.266V132.527H136.363V139.816Z" fill="white"></path></svg>