<svg xmlns="http://www.w3.org/2000/svg" width="212" height="150" viewBox="0 0 212 150" fill="none"><path fill-rule="evenodd" clip-rule="evenodd" d="M83.6914 39.623V27.1667L74.9923 32.122V44.5783L83.6914 39.623ZM86.2697 25.6899V38.1267L112.918 22.9304V10.4741L86.2697 25.6899ZM144.723 27.1667V39.623L153.422 44.5783V32.122L144.723 27.1667ZM83.6914 75.9814V42.5379L74.9923 47.4932V75.9814H83.6914ZM112.918 75.9814V25.8647L86.2697 41.061V75.9814H112.918ZM142.144 75.9814V41.061L115.496 25.8647V75.9814H142.144ZM83.6914 87.1162V78.527H74.9923V87.1162H83.6914ZM112.918 87.1162V78.527H86.2697V87.1162H112.918ZM153.422 87.1162V78.527H144.723V87.1162H153.422ZM127.482 2.19584L116.775 8.2977L156 30.6646V89.6619H86.2697V100H83.6914V89.6619H74.9923V99.6697H72.4142V89.6619H59.8575V87.1162H72.4142V78.527H56V75.9814H72.4142V48.9701L64.4236 53.5173L63.1443 51.3214L72.4142 46.0358V33.5795L65.1124 37.738L63.8332 35.5422L72.4142 30.6452V12.8449H74.9923V29.1683L83.6914 24.213V9.34704H86.2697V22.7555L126.203 0L127.482 2.19584Z" fill="white"></path><path d="M22.0802 117.864V141H17.7602V130.888H6.89617V141H2.57617V117.864H6.89617V127.816H17.7602V117.864H22.0802ZM34.6525 124.328C35.8685 124.328 36.9725 124.525 37.9645 124.92C38.9671 125.315 39.8205 125.875 40.5245 126.6C41.2391 127.325 41.7885 128.211 42.1725 129.256C42.5565 130.301 42.7485 131.469 42.7485 132.76C42.7485 134.061 42.5565 135.235 42.1725 136.28C41.7885 137.325 41.2391 138.216 40.5245 138.952C39.8205 139.688 38.9671 140.253 37.9645 140.648C36.9725 141.043 35.8685 141.24 34.6525 141.24C33.4258 141.24 32.3111 141.043 31.3085 140.648C30.3058 140.253 29.4471 139.688 28.7325 138.952C28.0285 138.216 27.4791 137.325 27.0845 136.28C26.7005 135.235 26.5085 134.061 26.5085 132.76C26.5085 131.469 26.7005 130.301 27.0845 129.256C27.4791 128.211 28.0285 127.325 28.7325 126.6C29.4471 125.875 30.3058 125.315 31.3085 124.92C32.3111 124.525 33.4258 124.328 34.6525 124.328ZM34.6525 138.2C36.0178 138.2 37.0258 137.741 37.6765 136.824C38.3378 135.907 38.6685 134.563 38.6685 132.792C38.6685 131.021 38.3378 129.672 37.6765 128.744C37.0258 127.816 36.0178 127.352 34.6525 127.352C33.2658 127.352 32.2365 127.821 31.5645 128.76C30.9031 129.688 30.5725 131.032 30.5725 132.792C30.5725 134.552 30.9031 135.896 31.5645 136.824C32.2365 137.741 33.2658 138.2 34.6525 138.2ZM61.1875 124.584V141H58.7715C58.2488 141 57.9181 140.76 57.7795 140.28L57.5075 138.968C56.8355 139.651 56.0941 140.205 55.2835 140.632C54.4728 141.048 53.5181 141.256 52.4195 141.256C51.5235 141.256 50.7288 141.107 50.0355 140.808C49.3528 140.499 48.7768 140.067 48.3075 139.512C47.8381 138.957 47.4808 138.301 47.2355 137.544C47.0008 136.776 46.8835 135.933 46.8835 135.016V124.584H50.8355V135.016C50.8355 136.019 51.0648 136.797 51.5235 137.352C51.9928 137.896 52.6915 138.168 53.6195 138.168C54.3021 138.168 54.9421 138.019 55.5395 137.72C56.1368 137.411 56.7021 136.989 57.2355 136.456V124.584H61.1875ZM76.4019 127.784C76.2953 127.955 76.1833 128.077 76.0659 128.152C75.9486 128.216 75.7993 128.248 75.6179 128.248C75.4259 128.248 75.2179 128.195 74.9939 128.088C74.7806 127.981 74.5299 127.864 74.2419 127.736C73.9539 127.597 73.6233 127.475 73.2499 127.368C72.8873 127.261 72.4553 127.208 71.9539 127.208C71.1753 127.208 70.5619 127.373 70.1139 127.704C69.6766 128.035 69.4579 128.467 69.4579 129C69.4579 129.352 69.5699 129.651 69.7939 129.896C70.0286 130.131 70.3326 130.339 70.7059 130.52C71.0899 130.701 71.5219 130.867 72.0019 131.016C72.4819 131.155 72.9673 131.309 73.4579 131.48C73.9593 131.651 74.4499 131.848 74.9299 132.072C75.4099 132.285 75.8366 132.563 76.2099 132.904C76.5939 133.235 76.8979 133.635 77.1219 134.104C77.3566 134.573 77.4739 135.139 77.4739 135.8C77.4739 136.589 77.3299 137.32 77.0419 137.992C76.7646 138.653 76.3486 139.229 75.7939 139.72C75.2393 140.2 74.5513 140.579 73.7299 140.856C72.9193 141.123 71.9806 141.256 70.9139 141.256C70.3486 141.256 69.7939 141.203 69.2499 141.096C68.7166 141 68.1993 140.861 67.6979 140.68C67.2073 140.499 66.7486 140.285 66.3219 140.04C65.9059 139.795 65.5379 139.528 65.2179 139.24L66.1299 137.736C66.2473 137.555 66.3859 137.416 66.5459 137.32C66.7059 137.224 66.9086 137.176 67.1539 137.176C67.3993 137.176 67.6286 137.245 67.8419 137.384C68.0659 137.523 68.3219 137.672 68.6099 137.832C68.8979 137.992 69.2339 138.141 69.6179 138.28C70.0126 138.419 70.5086 138.488 71.1059 138.488C71.5753 138.488 71.9753 138.435 72.3059 138.328C72.6473 138.211 72.9246 138.061 73.1379 137.88C73.3619 137.699 73.5219 137.491 73.6179 137.256C73.7246 137.011 73.7779 136.76 73.7779 136.504C73.7779 136.12 73.6606 135.805 73.4259 135.56C73.2019 135.315 72.8979 135.101 72.5139 134.92C72.1406 134.739 71.7086 134.579 71.2179 134.44C70.7379 134.291 70.2419 134.131 69.7299 133.96C69.2286 133.789 68.7326 133.592 68.2419 133.368C67.7619 133.133 67.3299 132.84 66.9459 132.488C66.5726 132.136 66.2686 131.704 66.0339 131.192C65.8099 130.68 65.6979 130.061 65.6979 129.336C65.6979 128.664 65.8313 128.024 66.0979 127.416C66.3646 126.808 66.7539 126.28 67.2659 125.832C67.7886 125.373 68.4339 125.011 69.2019 124.744C69.9806 124.467 70.8766 124.328 71.8899 124.328C73.0206 124.328 74.0499 124.515 74.9779 124.888C75.9059 125.261 76.6793 125.752 77.2979 126.36L76.4019 127.784ZM92.3045 130.904C92.3045 130.392 92.2298 129.912 92.0805 129.464C91.9418 129.005 91.7285 128.605 91.4405 128.264C91.1525 127.923 90.7845 127.656 90.3365 127.464C89.8991 127.261 89.3871 127.16 88.8005 127.16C87.6591 127.16 86.7578 127.485 86.0965 128.136C85.4458 128.787 85.0298 129.709 84.8485 130.904H92.3045ZM84.7685 133.288C84.8325 134.131 84.9818 134.861 85.2165 135.48C85.4511 136.088 85.7605 136.595 86.1445 137C86.5285 137.395 86.9818 137.693 87.5045 137.896C88.0378 138.088 88.6245 138.184 89.2645 138.184C89.9045 138.184 90.4538 138.109 90.9125 137.96C91.3818 137.811 91.7871 137.645 92.1285 137.464C92.4805 137.283 92.7845 137.117 93.0405 136.968C93.3071 136.819 93.5631 136.744 93.8085 136.744C94.1391 136.744 94.3845 136.867 94.5445 137.112L95.6805 138.552C95.2431 139.064 94.7525 139.496 94.2085 139.848C93.6645 140.189 93.0938 140.467 92.4965 140.68C91.9098 140.883 91.3071 141.027 90.6885 141.112C90.0805 141.197 89.4885 141.24 88.9125 141.24C87.7711 141.24 86.7098 141.053 85.7285 140.68C84.7471 140.296 83.8938 139.736 83.1685 139C82.4431 138.253 81.8725 137.336 81.4565 136.248C81.0405 135.149 80.8325 133.88 80.8325 132.44C80.8325 131.32 81.0138 130.269 81.3765 129.288C81.7391 128.296 82.2565 127.437 82.9285 126.712C83.6111 125.976 84.4378 125.395 85.4085 124.968C86.3898 124.541 87.4938 124.328 88.7205 124.328C89.7551 124.328 90.7098 124.493 91.5845 124.824C92.4591 125.155 93.2111 125.64 93.8405 126.28C94.4698 126.909 94.9605 127.688 95.3125 128.616C95.6751 129.533 95.8565 130.584 95.8565 131.768C95.8565 132.365 95.7925 132.771 95.6645 132.984C95.5365 133.187 95.2911 133.288 94.9285 133.288H84.7685ZM130.331 129.432C130.331 131.128 130.049 132.685 129.483 134.104C128.918 135.523 128.123 136.744 127.099 137.768C126.075 138.792 124.843 139.587 123.403 140.152C121.963 140.717 120.363 141 118.603 141H109.787V117.864H118.603C120.363 117.864 121.963 118.152 123.403 118.728C124.843 119.293 126.075 120.088 127.099 121.112C128.123 122.125 128.918 123.341 129.483 124.76C130.049 126.179 130.331 127.736 130.331 129.432ZM125.915 129.432C125.915 128.163 125.745 127.027 125.403 126.024C125.073 125.011 124.587 124.157 123.947 123.464C123.318 122.76 122.55 122.221 121.643 121.848C120.747 121.475 119.734 121.288 118.603 121.288H114.107V137.576H118.603C119.734 137.576 120.747 137.389 121.643 137.016C122.55 136.643 123.318 136.109 123.947 135.416C124.587 134.712 125.073 133.859 125.403 132.856C125.745 131.843 125.915 130.701 125.915 129.432ZM145.144 130.904C145.144 130.392 145.07 129.912 144.92 129.464C144.782 129.005 144.568 128.605 144.28 128.264C143.992 127.923 143.624 127.656 143.176 127.464C142.739 127.261 142.227 127.16 141.64 127.16C140.499 127.16 139.598 127.485 138.936 128.136C138.286 128.787 137.87 129.709 137.688 130.904H145.144ZM137.608 133.288C137.672 134.131 137.822 134.861 138.056 135.48C138.291 136.088 138.6 136.595 138.984 137C139.368 137.395 139.822 137.693 140.344 137.896C140.878 138.088 141.464 138.184 142.104 138.184C142.744 138.184 143.294 138.109 143.752 137.96C144.222 137.811 144.627 137.645 144.968 137.464C145.32 137.283 145.624 137.117 145.88 136.968C146.147 136.819 146.403 136.744 146.648 136.744C146.979 136.744 147.224 136.867 147.384 137.112L148.52 138.552C148.083 139.064 147.592 139.496 147.048 139.848C146.504 140.189 145.934 140.467 145.336 140.68C144.75 140.883 144.147 141.027 143.528 141.112C142.92 141.197 142.328 141.24 141.752 141.24C140.611 141.24 139.55 141.053 138.568 140.68C137.587 140.296 136.734 139.736 136.008 139C135.283 138.253 134.712 137.336 134.296 136.248C133.88 135.149 133.672 133.88 133.672 132.44C133.672 131.32 133.854 130.269 134.216 129.288C134.579 128.296 135.096 127.437 135.768 126.712C136.451 125.976 137.278 125.395 138.248 124.968C139.23 124.541 140.334 124.328 141.56 124.328C142.595 124.328 143.55 124.493 144.424 124.824C145.299 125.155 146.051 125.64 146.68 126.28C147.31 126.909 147.8 127.688 148.152 128.616C148.515 129.533 148.696 130.584 148.696 131.768C148.696 132.365 148.632 132.771 148.504 132.984C148.376 133.187 148.131 133.288 147.768 133.288H137.608ZM162.958 127.784C162.851 127.955 162.739 128.077 162.622 128.152C162.505 128.216 162.355 128.248 162.174 128.248C161.982 128.248 161.774 128.195 161.55 128.088C161.337 127.981 161.086 127.864 160.798 127.736C160.51 127.597 160.179 127.475 159.806 127.368C159.443 127.261 159.011 127.208 158.51 127.208C157.731 127.208 157.118 127.373 156.67 127.704C156.233 128.035 156.014 128.467 156.014 129C156.014 129.352 156.126 129.651 156.35 129.896C156.585 130.131 156.889 130.339 157.262 130.52C157.646 130.701 158.078 130.867 158.558 131.016C159.038 131.155 159.523 131.309 160.014 131.48C160.515 131.651 161.006 131.848 161.486 132.072C161.966 132.285 162.393 132.563 162.766 132.904C163.15 133.235 163.454 133.635 163.678 134.104C163.913 134.573 164.03 135.139 164.03 135.8C164.03 136.589 163.886 137.32 163.598 137.992C163.321 138.653 162.905 139.229 162.35 139.72C161.795 140.2 161.107 140.579 160.286 140.856C159.475 141.123 158.537 141.256 157.47 141.256C156.905 141.256 156.35 141.203 155.806 141.096C155.273 141 154.755 140.861 154.254 140.68C153.763 140.499 153.305 140.285 152.878 140.04C152.462 139.795 152.094 139.528 151.774 139.24L152.686 137.736C152.803 137.555 152.942 137.416 153.102 137.32C153.262 137.224 153.465 137.176 153.71 137.176C153.955 137.176 154.185 137.245 154.398 137.384C154.622 137.523 154.878 137.672 155.166 137.832C155.454 137.992 155.79 138.141 156.174 138.28C156.569 138.419 157.065 138.488 157.662 138.488C158.131 138.488 158.531 138.435 158.862 138.328C159.203 138.211 159.481 138.061 159.694 137.88C159.918 137.699 160.078 137.491 160.174 137.256C160.281 137.011 160.334 136.76 160.334 136.504C160.334 136.12 160.217 135.805 159.982 135.56C159.758 135.315 159.454 135.101 159.07 134.92C158.697 134.739 158.265 134.579 157.774 134.44C157.294 134.291 156.798 134.131 156.286 133.96C155.785 133.789 155.289 133.592 154.798 133.368C154.318 133.133 153.886 132.84 153.502 132.488C153.129 132.136 152.825 131.704 152.59 131.192C152.366 130.68 152.254 130.061 152.254 129.336C152.254 128.664 152.387 128.024 152.654 127.416C152.921 126.808 153.31 126.28 153.822 125.832C154.345 125.373 154.99 125.011 155.758 124.744C156.537 124.467 157.433 124.328 158.446 124.328C159.577 124.328 160.606 124.515 161.534 124.888C162.462 125.261 163.235 125.752 163.854 126.36L162.958 127.784ZM172.381 124.584V141H168.413V124.584H172.381ZM172.925 119.8C172.925 120.141 172.855 120.461 172.717 120.76C172.578 121.059 172.391 121.32 172.157 121.544C171.933 121.768 171.666 121.949 171.357 122.088C171.047 122.216 170.717 122.28 170.365 122.28C170.023 122.28 169.698 122.216 169.389 122.088C169.09 121.949 168.829 121.768 168.605 121.544C168.381 121.32 168.199 121.059 168.061 120.76C167.933 120.461 167.869 120.141 167.869 119.8C167.869 119.448 167.933 119.117 168.061 118.808C168.199 118.499 168.381 118.232 168.605 118.008C168.829 117.784 169.09 117.608 169.389 117.48C169.698 117.341 170.023 117.272 170.365 117.272C170.717 117.272 171.047 117.341 171.357 117.48C171.666 117.608 171.933 117.784 172.157 118.008C172.391 118.232 172.578 118.499 172.717 118.808C172.855 119.117 172.925 119.448 172.925 119.8ZM183.69 132.392C184.18 132.392 184.607 132.328 184.97 132.2C185.332 132.061 185.631 131.875 185.866 131.64C186.111 131.405 186.292 131.123 186.41 130.792C186.538 130.461 186.602 130.099 186.602 129.704C186.602 128.893 186.356 128.253 185.866 127.784C185.386 127.304 184.66 127.064 183.69 127.064C182.719 127.064 181.988 127.304 181.498 127.784C181.018 128.253 180.778 128.893 180.778 129.704C180.778 130.088 180.836 130.445 180.954 130.776C181.082 131.107 181.263 131.395 181.498 131.64C181.743 131.875 182.047 132.061 182.41 132.2C182.783 132.328 183.21 132.392 183.69 132.392ZM188.154 141.736C188.154 141.416 188.058 141.155 187.866 140.952C187.674 140.749 187.412 140.595 187.082 140.488C186.751 140.371 186.362 140.285 185.914 140.232C185.476 140.179 185.007 140.141 184.506 140.12C184.015 140.088 183.503 140.061 182.97 140.04C182.447 140.019 181.935 139.976 181.434 139.912C180.996 140.157 180.639 140.445 180.362 140.776C180.095 141.107 179.962 141.491 179.962 141.928C179.962 142.216 180.031 142.483 180.17 142.728C180.319 142.984 180.548 143.203 180.858 143.384C181.178 143.565 181.588 143.704 182.09 143.8C182.591 143.907 183.204 143.96 183.93 143.96C184.666 143.96 185.3 143.901 185.834 143.784C186.367 143.677 186.804 143.523 187.146 143.32C187.498 143.128 187.754 142.893 187.914 142.616C188.074 142.349 188.154 142.056 188.154 141.736ZM192.09 125.144V126.616C192.09 127.085 191.807 127.373 191.242 127.48L189.77 127.752C189.994 128.317 190.106 128.936 190.106 129.608C190.106 130.419 189.94 131.155 189.61 131.816C189.29 132.467 188.842 133.021 188.266 133.48C187.69 133.939 187.007 134.296 186.218 134.552C185.439 134.797 184.596 134.92 183.69 134.92C183.37 134.92 183.06 134.904 182.762 134.872C182.463 134.84 182.17 134.797 181.882 134.744C181.37 135.053 181.114 135.4 181.114 135.784C181.114 136.115 181.263 136.36 181.562 136.52C181.871 136.669 182.276 136.776 182.778 136.84C183.279 136.904 183.85 136.947 184.49 136.968C185.13 136.979 185.786 137.011 186.458 137.064C187.13 137.117 187.786 137.213 188.426 137.352C189.066 137.48 189.636 137.688 190.138 137.976C190.639 138.264 191.039 138.659 191.338 139.16C191.647 139.651 191.802 140.285 191.802 141.064C191.802 141.789 191.62 142.493 191.258 143.176C190.906 143.859 190.388 144.467 189.706 145C189.034 145.533 188.202 145.96 187.21 146.28C186.228 146.611 185.108 146.776 183.85 146.776C182.612 146.776 181.535 146.653 180.618 146.408C179.7 146.173 178.938 145.853 178.33 145.448C177.722 145.053 177.268 144.595 176.97 144.072C176.671 143.549 176.522 143.005 176.522 142.44C176.522 141.672 176.751 141.032 177.21 140.52C177.679 139.997 178.319 139.581 179.13 139.272C178.692 139.048 178.346 138.749 178.09 138.376C177.834 138.003 177.706 137.512 177.706 136.904C177.706 136.659 177.748 136.408 177.834 136.152C177.93 135.885 178.063 135.624 178.234 135.368C178.415 135.112 178.639 134.872 178.906 134.648C179.172 134.413 179.487 134.205 179.85 134.024C179.018 133.576 178.362 132.979 177.882 132.232C177.412 131.485 177.178 130.611 177.178 129.608C177.178 128.797 177.338 128.067 177.658 127.416C177.988 126.755 178.442 126.195 179.018 125.736C179.604 125.267 180.292 124.909 181.082 124.664C181.882 124.419 182.751 124.296 183.69 124.296C184.394 124.296 185.055 124.371 185.674 124.52C186.292 124.659 186.858 124.867 187.37 125.144H192.09ZM199.572 126.6C199.902 126.269 200.249 125.965 200.612 125.688C200.985 125.4 201.374 125.16 201.78 124.968C202.196 124.765 202.638 124.611 203.108 124.504C203.577 124.387 204.089 124.328 204.644 124.328C205.54 124.328 206.334 124.483 207.028 124.792C207.721 125.091 208.297 125.517 208.756 126.072C209.225 126.616 209.577 127.272 209.812 128.04C210.057 128.797 210.18 129.635 210.18 130.552V141H206.228V130.552C206.228 129.549 205.998 128.776 205.54 128.232C205.081 127.677 204.382 127.4 203.444 127.4C202.761 127.4 202.121 127.555 201.524 127.864C200.926 128.173 200.361 128.595 199.828 129.128V141H195.876V124.584H198.292C198.804 124.584 199.14 124.824 199.3 125.304L199.572 126.6Z" fill="white"></path></svg>