<svg xmlns="http://www.w3.org/2000/svg" width="191" height="152" viewBox="0 0 191 152" fill="none"><path fill-rule="evenodd" clip-rule="evenodd" d="M47.5 100V75.1482L57.8226 69.2705V100H47.5Z" fill="white"></path><path fill-rule="evenodd" clip-rule="evenodd" d="M104.544 65.3254V27.712L81.1831 14.3984V100H92.8635V58.6588L104.544 65.3254Z" fill="white"></path><path fill-rule="evenodd" clip-rule="evenodd" d="M104.544 100.001V65.3262L119.139 73.6496V100.001H104.544Z" fill="white"></path><path fill-rule="evenodd" clip-rule="evenodd" d="M78.2483 32.1504V100H68.1453V75.1484L57.8228 69.2707V43.7875L78.2483 32.1504Z" fill="white"></path><path fill-rule="evenodd" clip-rule="evenodd" d="M94.3208 14.1617L119.139 0V70.2958L107.479 63.6489V26.0552L94.3208 18.5602V14.1617Z" fill="white"></path><path fill-rule="evenodd" clip-rule="evenodd" d="M122.074 51.4994L142.5 39.8623V100H122.074V51.4994Z" fill="white"></path><path d="M14.625 112.017C15.9062 112.017 17.2135 112.136 18.5469 112.376C19.8802 112.605 21.1771 112.959 22.4375 113.438C23.6979 113.918 24.8854 114.522 26 115.251C27.1146 115.97 28.0885 116.813 28.9219 117.782C29.7552 118.751 30.4115 119.845 30.8906 121.063C31.3802 122.282 31.625 123.631 31.625 125.11C31.625 126.59 31.3646 127.959 30.8438 129.22C30.3229 130.48 29.5938 131.569 28.6562 132.485C27.7188 133.402 26.599 134.121 25.2969 134.642C23.9948 135.162 22.5625 135.423 21 135.423C20.2604 135.423 19.4948 135.366 18.7031 135.251C17.9115 135.147 17.1198 134.98 16.3281 134.751C15.5365 134.522 14.7552 134.241 13.9844 133.907C13.224 133.563 12.4948 133.157 11.7969 132.688C10.974 133.501 10.0208 134.136 8.9375 134.595C7.86458 135.043 6.72917 135.267 5.53125 135.267C4.88542 135.267 4.28125 135.194 3.71875 135.048C3.15625 134.902 2.66667 134.694 2.25 134.423C1.84375 134.152 1.52083 133.824 1.28125 133.438C1.05208 133.053 0.9375 132.626 0.9375 132.157C0.9375 131.751 1.03646 131.371 1.23438 131.017C1.44271 130.662 1.72917 130.35 2.09375 130.079C2.46875 129.808 2.91146 129.595 3.42188 129.438C3.94271 129.282 4.51042 129.204 5.125 129.204C6.9375 129.204 9.08333 129.871 11.5625 131.204C12.0208 130.631 12.3958 129.985 12.6875 129.267C13.0104 128.465 13.2604 127.642 13.4375 126.798C13.625 125.944 13.7865 125.095 13.9219 124.251C14.0677 123.407 14.2135 122.584 14.3594 121.782C14.5156 120.98 14.724 120.225 14.9844 119.517C15.2552 118.808 15.6042 118.162 16.0312 117.579C16.4688 116.985 17.0365 116.48 17.7344 116.063C17.8385 116.011 17.9323 115.985 18.0156 115.985C18.1615 115.985 18.2969 116.037 18.4219 116.142C18.5573 116.246 18.625 116.392 18.625 116.579C18.625 116.798 18.526 116.965 18.3281 117.079C17.776 117.402 17.3229 117.808 16.9688 118.298C16.625 118.777 16.3385 119.319 16.1094 119.923C15.8802 120.527 15.6979 121.178 15.5625 121.876C15.4271 122.574 15.2969 123.303 15.1719 124.063C15.0677 124.688 14.9531 125.345 14.8281 126.032C14.7031 126.709 14.5469 127.386 14.3594 128.063C14.1719 128.73 13.9323 129.386 13.6406 130.032C13.3594 130.668 13.0104 131.256 12.5938 131.798C12.6146 131.808 12.625 131.819 12.625 131.829C12.6354 131.829 12.651 131.834 12.6719 131.845C13.9948 132.636 15.3698 133.235 16.7969 133.642C18.224 134.048 19.6198 134.251 20.9844 134.251C22.4635 134.251 23.7865 134.006 24.9531 133.517C26.1302 133.027 27.125 132.371 27.9375 131.548C28.75 130.715 29.3698 129.746 29.7969 128.642C30.224 127.537 30.4375 126.371 30.4375 125.142C30.4375 123.892 30.2292 122.73 29.8125 121.657C29.3958 120.574 28.8229 119.59 28.0938 118.704C27.375 117.819 26.5156 117.032 25.5156 116.345C24.526 115.657 23.4531 115.084 22.2969 114.626C21.151 114.157 19.9427 113.803 18.6719 113.563C17.4115 113.313 16.1458 113.188 14.875 113.188C13.1667 113.188 11.6042 113.334 10.1875 113.626C8.78125 113.907 7.56771 114.324 6.54688 114.876C5.53646 115.428 4.75 116.105 4.1875 116.907C3.625 117.709 3.34375 118.621 3.34375 119.642C3.34375 120.225 3.42708 120.741 3.59375 121.188C3.77083 121.636 3.98958 122.027 4.25 122.36C4.52083 122.683 4.8125 122.959 5.125 123.188C5.4375 123.418 5.72917 123.605 6 123.751C6.27083 123.886 6.5 123.985 6.6875 124.048C6.88542 124.11 7 124.147 7.03125 124.157C7.16667 124.188 7.27083 124.261 7.34375 124.376C7.42708 124.48 7.46875 124.6 7.46875 124.735C7.46875 124.912 7.40625 125.048 7.28125 125.142C7.15625 125.235 7.02083 125.282 6.875 125.282C6.66667 125.282 6.40625 125.235 6.09375 125.142C5.78125 125.037 5.44792 124.886 5.09375 124.688C4.75 124.48 4.40104 124.225 4.04688 123.923C3.70312 123.61 3.39062 123.246 3.10938 122.829C2.82812 122.412 2.59896 121.938 2.42188 121.407C2.25521 120.876 2.17188 120.287 2.17188 119.642C2.17188 118.465 2.46875 117.407 3.0625 116.47C3.66667 115.522 4.51562 114.72 5.60938 114.063C6.70312 113.407 8.01042 112.902 9.53125 112.548C11.0625 112.194 12.7604 112.017 14.625 112.017ZM10.7188 132.095C9.63542 131.522 8.63021 131.09 7.70312 130.798C6.77604 130.506 5.92708 130.36 5.15625 130.36C4.71875 130.36 4.3125 130.412 3.9375 130.517C3.57292 130.61 3.25521 130.741 2.98438 130.907C2.71354 131.074 2.5 131.267 2.34375 131.485C2.1875 131.704 2.10938 131.933 2.10938 132.173C2.10938 132.402 2.17708 132.631 2.3125 132.86C2.45833 133.09 2.67188 133.293 2.95312 133.47C3.24479 133.647 3.60417 133.793 4.03125 133.907C4.45833 134.022 4.95833 134.079 5.53125 134.079C6.51042 134.079 7.44271 133.907 8.32812 133.563C9.22396 133.209 10.0208 132.72 10.7188 132.095ZM36.8581 128.579C36.8165 128.86 36.7644 129.126 36.7019 129.376C36.6394 129.616 36.5769 129.829 36.5144 130.017C36.4623 130.194 36.4154 130.34 36.3737 130.454C36.3321 130.569 36.306 130.631 36.2956 130.642C36.1915 130.881 36.0092 131.001 35.7487 131.001C35.6029 131.001 35.4675 130.949 35.3425 130.845C35.2175 130.73 35.155 130.59 35.155 130.423C35.155 130.36 35.1654 130.313 35.1862 130.282C35.2071 130.251 35.2383 130.188 35.28 130.095C35.3217 130.001 35.3737 129.845 35.4362 129.626C35.4987 129.407 35.5769 129.069 35.6706 128.61C35.4935 128.61 35.3112 128.605 35.1237 128.595C34.9362 128.584 34.7644 128.548 34.6081 128.485C34.4415 128.423 34.306 128.324 34.2019 128.188C34.0977 128.053 34.0456 127.866 34.0456 127.626C34.0456 127.449 34.0977 127.209 34.2019 126.907C34.2956 126.605 34.4258 126.308 34.5925 126.017C34.7592 125.725 34.9467 125.475 35.155 125.267C35.3633 125.048 35.5717 124.938 35.78 124.938C36.0196 124.938 36.2123 125.027 36.3581 125.204C36.5144 125.381 36.6342 125.6 36.7175 125.86C36.8008 126.11 36.8581 126.376 36.8894 126.657C36.931 126.938 36.9519 127.183 36.9519 127.392C37.129 127.392 37.3008 127.392 37.4675 127.392C37.6446 127.381 37.8112 127.376 37.9675 127.376C38.5612 127.376 39.0144 127.506 39.3269 127.767C39.6394 128.027 39.7956 128.454 39.7956 129.048C39.7956 129.287 39.78 129.537 39.7487 129.798C39.7175 130.058 39.681 130.329 39.6394 130.61C39.5977 130.881 39.5612 131.152 39.53 131.423C39.4987 131.694 39.4831 131.959 39.4831 132.22C39.4831 132.595 39.5352 132.907 39.6394 133.157C39.7435 133.397 39.8737 133.59 40.03 133.735C40.1862 133.881 40.3529 133.985 40.53 134.048C40.7071 134.1 40.8685 134.126 41.0144 134.126C41.4623 134.126 41.8842 133.98 42.28 133.688C42.6758 133.397 43.0404 133.048 43.3737 132.642C43.7071 132.225 44.004 131.787 44.2644 131.329C44.5352 130.871 44.7592 130.47 44.9362 130.126C44.9883 130.032 45.0612 129.959 45.155 129.907C45.2487 129.855 45.3477 129.829 45.4519 129.829C45.6394 129.829 45.7852 129.892 45.8894 130.017C45.9935 130.131 46.0456 130.261 46.0456 130.407C46.0456 130.511 46.0248 130.605 45.9831 130.688C45.7435 131.116 45.4623 131.6 45.1394 132.142C44.8269 132.673 44.4675 133.173 44.0612 133.642C43.655 134.11 43.1967 134.506 42.6862 134.829C42.1862 135.152 41.6342 135.313 41.03 135.313C40.655 135.313 40.3008 135.241 39.9675 135.095C39.6342 134.959 39.3425 134.761 39.0925 134.501C38.8529 134.23 38.6602 133.902 38.5144 133.517C38.3685 133.121 38.2956 132.678 38.2956 132.188C38.2956 131.668 38.3477 131.152 38.4519 130.642C38.556 130.121 38.6081 129.626 38.6081 129.157C38.6081 128.959 38.5612 128.813 38.4675 128.72C38.3842 128.616 38.1915 128.563 37.8894 128.563C37.7435 128.563 37.5821 128.563 37.405 128.563C37.2383 128.563 37.056 128.569 36.8581 128.579ZM35.8112 127.423C35.8112 127.35 35.806 127.256 35.7956 127.142C35.7956 127.017 35.7852 126.897 35.7644 126.782C35.754 126.668 35.7331 126.569 35.7019 126.485C35.681 126.402 35.655 126.36 35.6237 126.36C35.5925 126.36 35.5508 126.402 35.4987 126.485C35.4571 126.558 35.4102 126.652 35.3581 126.767C35.306 126.871 35.2592 126.985 35.2175 127.11C35.1758 127.235 35.1446 127.34 35.1237 127.423H35.8112ZM58.2944 130.642C58.2527 130.725 58.1642 130.902 58.0288 131.173C57.9038 131.433 57.7371 131.735 57.5288 132.079C57.3308 132.423 57.0965 132.782 56.8256 133.157C56.5548 133.532 56.2527 133.876 55.9194 134.188C55.586 134.501 55.2267 134.761 54.8413 134.97C54.4558 135.168 54.0496 135.267 53.6225 135.267C53.0183 135.267 52.5079 135.074 52.0913 134.688C51.685 134.303 51.3881 133.819 51.2006 133.235C50.8465 133.829 50.4246 134.303 49.935 134.657C49.4454 135.001 48.9558 135.173 48.4663 135.173C48.0808 135.173 47.7319 135.105 47.4194 134.97C47.1069 134.824 46.8413 134.626 46.6225 134.376C46.4038 134.116 46.2319 133.813 46.1069 133.47C45.9923 133.126 45.935 132.751 45.935 132.345C45.935 131.532 46.0704 130.819 46.3413 130.204C46.6225 129.579 46.9767 129.058 47.4038 128.642C47.8308 128.225 48.2996 127.912 48.81 127.704C49.3308 127.496 49.8308 127.392 50.31 127.392C50.6329 127.392 50.9298 127.438 51.2006 127.532C51.4715 127.616 51.7006 127.709 51.8881 127.813C52.086 127.918 52.2371 128.017 52.3413 128.11C52.4454 128.194 52.5027 128.241 52.5131 128.251C52.6277 128.386 52.685 128.527 52.685 128.673C52.685 128.829 52.6277 128.97 52.5131 129.095C52.3985 129.209 52.2631 129.267 52.1069 129.267C51.9402 129.267 51.7996 129.209 51.685 129.095C51.6642 129.074 51.6173 129.037 51.5444 128.985C51.4715 128.923 51.3725 128.86 51.2475 128.798C51.1225 128.735 50.9715 128.683 50.7944 128.642C50.6277 128.59 50.435 128.563 50.2163 128.563C49.8933 128.563 49.5496 128.636 49.185 128.782C48.8204 128.928 48.4871 129.157 48.185 129.47C47.8829 129.772 47.6277 130.157 47.4194 130.626C47.2215 131.084 47.1225 131.631 47.1225 132.267C47.1225 132.465 47.1433 132.668 47.185 132.876C47.2267 133.074 47.2996 133.256 47.4038 133.423C47.5079 133.59 47.6485 133.725 47.8256 133.829C48.0027 133.933 48.2215 133.985 48.4819 133.985C48.6694 133.985 48.8829 133.923 49.1225 133.798C49.3725 133.673 49.6069 133.48 49.8256 133.22C50.0548 132.959 50.2579 132.631 50.435 132.235C50.6225 131.84 50.7527 131.371 50.8256 130.829C50.8465 130.683 50.9142 130.563 51.0288 130.47C51.1433 130.366 51.2788 130.313 51.435 130.313C51.5808 130.313 51.7058 130.371 51.81 130.485C51.9246 130.6 51.9871 130.73 51.9975 130.876C52.0079 131.074 52.0288 131.355 52.06 131.72C52.0913 132.074 52.159 132.428 52.2631 132.782C52.3777 133.136 52.5444 133.444 52.7631 133.704C52.9819 133.965 53.284 134.095 53.6694 134.095C53.9194 134.095 54.1642 134.027 54.4038 133.892C54.6538 133.756 54.8933 133.579 55.1225 133.36C55.3621 133.131 55.586 132.876 55.7944 132.595C56.0131 132.303 56.211 132.011 56.3881 131.72C56.5652 131.428 56.7215 131.147 56.8569 130.876C56.9923 130.605 57.1069 130.371 57.2006 130.173C57.2527 130.058 57.3256 129.97 57.4194 129.907C57.5235 129.845 57.6329 129.813 57.7475 129.813C57.9246 129.813 58.0652 129.881 58.1694 130.017C58.284 130.142 58.3413 130.277 58.3413 130.423C58.3413 130.496 58.3256 130.569 58.2944 130.642ZM59.715 135.767C60.4858 135.423 61.1838 135.027 61.8088 134.579C62.4442 134.131 63.0067 133.662 63.4963 133.173C63.9963 132.673 64.4181 132.168 64.7619 131.657C65.116 131.136 65.3973 130.642 65.6056 130.173C65.6994 129.944 65.8765 129.829 66.1369 129.829C66.314 129.829 66.4546 129.892 66.5588 130.017C66.6733 130.131 66.7306 130.261 66.7306 130.407C66.7306 130.491 66.715 130.569 66.6838 130.642C66.4546 131.152 66.1629 131.683 65.8088 132.235C65.4546 132.777 65.0223 133.313 64.5119 133.845C64.0119 134.366 63.4233 134.871 62.7463 135.36C62.0692 135.85 61.2931 136.298 60.4181 136.704C60.9806 137.287 61.4702 137.933 61.8869 138.642C62.3035 139.36 62.6473 140.105 62.9181 140.876C63.1994 141.647 63.4077 142.423 63.5431 143.204C63.689 143.996 63.7619 144.751 63.7619 145.47C63.7619 146.126 63.6994 146.741 63.5744 147.313C63.4598 147.897 63.2827 148.402 63.0431 148.829C62.814 149.256 62.5327 149.59 62.1994 149.829C61.866 150.079 61.4858 150.204 61.0588 150.204C60.4338 150.204 59.9494 149.97 59.6056 149.501C59.2619 149.043 59.0067 148.402 58.84 147.579C58.6838 146.767 58.59 145.803 58.5588 144.688C58.5379 143.584 58.5275 142.381 58.5275 141.079C58.5275 140.433 58.5275 139.678 58.5275 138.813C58.5275 137.959 58.5275 137.037 58.5275 136.048C58.5379 135.069 58.5431 134.043 58.5431 132.97C58.5535 131.886 58.564 130.803 58.5744 129.72C58.5848 128.636 58.5952 127.574 58.6056 126.532C58.616 125.48 58.6317 124.485 58.6525 123.548C58.6838 121.756 58.7463 120.157 58.84 118.751C58.9338 117.345 59.0848 116.157 59.2931 115.188C59.5015 114.22 59.7827 113.485 60.1369 112.985C60.5015 112.475 60.9598 112.22 61.5119 112.22C61.9494 112.22 62.3192 112.345 62.6213 112.595C62.9233 112.834 63.1681 113.162 63.3556 113.579C63.5431 113.985 63.6785 114.465 63.7619 115.017C63.8452 115.569 63.8869 116.147 63.8869 116.751C63.8869 118.022 63.7775 119.251 63.5588 120.438C63.34 121.626 63.0431 122.777 62.6681 123.892C62.2931 125.006 61.8504 126.095 61.34 127.157C60.84 128.22 60.3035 129.267 59.7306 130.298C59.7306 130.725 59.7306 131.188 59.7306 131.688C59.7306 132.178 59.7306 132.673 59.7306 133.173C59.7306 133.662 59.7254 134.136 59.715 134.595C59.715 135.043 59.715 135.433 59.715 135.767ZM59.7619 127.892C60.189 127.09 60.5796 126.246 60.9338 125.36C61.2983 124.465 61.6108 123.543 61.8713 122.595C62.1317 121.647 62.3348 120.678 62.4806 119.688C62.6265 118.699 62.6994 117.704 62.6994 116.704C62.6994 116.204 62.6733 115.751 62.6213 115.345C62.5796 114.938 62.5067 114.595 62.4025 114.313C62.3088 114.022 62.1838 113.798 62.0275 113.642C61.8817 113.475 61.7098 113.392 61.5119 113.392C61.3035 113.392 61.1213 113.517 60.965 113.767C60.8088 114.017 60.6733 114.35 60.5588 114.767C60.4442 115.183 60.3452 115.662 60.2619 116.204C60.189 116.746 60.1265 117.313 60.0744 117.907C60.0223 118.491 59.9806 119.079 59.9494 119.673C59.9181 120.256 59.8921 120.808 59.8713 121.329C59.8608 121.84 59.8504 122.293 59.84 122.688C59.84 123.084 59.84 123.381 59.84 123.579C59.8296 123.996 59.8192 124.366 59.8088 124.688C59.8088 125.011 59.8035 125.329 59.7931 125.642C59.7827 125.954 59.7723 126.287 59.7619 126.642C59.7619 126.996 59.7619 127.412 59.7619 127.892ZM59.715 137.688C59.715 138.345 59.7098 138.954 59.6994 139.517C59.6994 140.09 59.6994 140.61 59.6994 141.079C59.6994 142.048 59.7046 143.006 59.715 143.954C59.7254 144.902 59.7723 145.751 59.8556 146.501C59.9494 147.261 60.0848 147.871 60.2619 148.329C60.4494 148.798 60.715 149.032 61.0588 149.032C61.3713 149.032 61.6265 148.892 61.8244 148.61C62.0223 148.329 62.1733 147.996 62.2775 147.61C62.3921 147.225 62.4702 146.829 62.5119 146.423C62.5535 146.027 62.5744 145.704 62.5744 145.454C62.5744 144.819 62.5119 144.152 62.3869 143.454C62.2723 142.756 62.09 142.063 61.84 141.376C61.6004 140.699 61.3035 140.043 60.9494 139.407C60.5952 138.772 60.1838 138.199 59.715 137.688ZM79.5575 119.36C79.5575 119.527 79.5002 119.662 79.3856 119.767C79.271 119.86 79.1304 119.907 78.9638 119.907H71.0419V120.079C71.0419 120.715 70.995 121.392 70.9013 122.11C70.8075 122.829 70.6773 123.548 70.5106 124.267C70.3544 124.975 70.1721 125.668 69.9638 126.345C69.7658 127.022 69.5575 127.647 69.3388 128.22C69.1304 128.793 68.9221 129.293 68.7138 129.72C68.5054 130.136 68.3179 130.449 68.1513 130.657C68.2867 131.136 68.4481 131.584 68.6356 132.001C68.8231 132.407 69.0315 132.767 69.2606 133.079C69.5002 133.381 69.7554 133.621 70.0263 133.798C70.2971 133.975 70.5888 134.063 70.9013 134.063C71.2658 134.063 71.6252 133.912 71.9794 133.61C72.344 133.298 72.6773 132.933 72.9794 132.517C73.2919 132.09 73.5627 131.662 73.7919 131.235C74.0315 130.798 74.2033 130.449 74.3075 130.188C74.4117 129.938 74.594 129.813 74.8544 129.813C75.0315 129.813 75.1721 129.876 75.2763 130.001C75.3908 130.126 75.4481 130.261 75.4481 130.407C75.4481 130.48 75.4325 130.553 75.4013 130.626C75.37 130.699 75.2919 130.866 75.1669 131.126C75.0523 131.386 74.896 131.688 74.6981 132.032C74.5106 132.376 74.2867 132.741 74.0263 133.126C73.7763 133.501 73.4898 133.845 73.1669 134.157C72.8544 134.47 72.5158 134.73 72.1513 134.938C71.7867 135.147 71.4013 135.251 70.995 135.251C70.2763 135.251 69.6304 135.017 69.0575 134.548C68.4846 134.079 67.995 133.423 67.5888 132.579C67.1929 131.735 66.8908 130.735 66.6825 129.579C66.4742 128.423 66.37 127.157 66.37 125.782C66.37 125.438 66.3752 125.037 66.3856 124.579C66.396 124.11 66.4169 123.621 66.4481 123.11C66.4794 122.59 66.5263 122.058 66.5888 121.517C66.6513 120.965 66.7346 120.428 66.8388 119.907H61.2294C61.0627 119.907 60.9221 119.86 60.8075 119.767C60.6929 119.662 60.6356 119.527 60.6356 119.36C60.6356 119.194 60.6929 119.063 60.8075 118.97C60.9221 118.866 61.0627 118.813 61.2294 118.813H67.1044C67.2085 118.438 67.3283 118.095 67.4638 117.782C67.6096 117.47 67.771 117.199 67.9481 116.97C68.1356 116.741 68.3388 116.563 68.5575 116.438C68.7867 116.303 69.0367 116.235 69.3075 116.235C69.5679 116.235 69.7919 116.303 69.9794 116.438C70.1773 116.563 70.344 116.741 70.4794 116.97C70.6148 117.199 70.719 117.47 70.7919 117.782C70.8752 118.095 70.9377 118.438 70.9794 118.813H78.9638C79.1304 118.813 79.271 118.866 79.3856 118.97C79.5002 119.063 79.5575 119.194 79.5575 119.36ZM67.7919 129.095C68.1044 128.407 68.3856 127.668 68.6356 126.876C68.896 126.074 69.1148 125.267 69.2919 124.454C69.4794 123.642 69.62 122.845 69.7138 122.063C69.8179 121.282 69.87 120.563 69.87 119.907H68.0263C67.8804 120.553 67.7606 121.355 67.6669 122.313C67.5835 123.261 67.5419 124.418 67.5419 125.782C67.5419 126.543 67.5627 127.183 67.6044 127.704C67.646 128.215 67.7085 128.678 67.7919 129.095ZM69.245 117.407C69.1513 117.407 69.0158 117.511 68.8388 117.72C68.6617 117.918 68.4846 118.282 68.3075 118.813H69.8075C69.7554 118.376 69.6773 118.032 69.5731 117.782C69.4794 117.532 69.37 117.407 69.245 117.407ZM68.0419 130.22V130.235V130.22ZM78.1969 122.735C78.1969 123.131 78.0563 123.47 77.775 123.751C77.5042 124.022 77.1708 124.157 76.775 124.157C76.3792 124.157 76.0406 124.022 75.7594 123.751C75.4885 123.47 75.3531 123.131 75.3531 122.735C75.3531 122.537 75.3896 122.355 75.4625 122.188C75.5354 122.011 75.6344 121.86 75.7594 121.735C75.8948 121.6 76.0458 121.496 76.2125 121.423C76.3896 121.35 76.5771 121.313 76.775 121.313C76.9729 121.313 77.1552 121.35 77.3219 121.423C77.499 121.496 77.65 121.6 77.775 121.735C77.9104 121.86 78.0146 122.011 78.0875 122.188C78.1604 122.355 78.1969 122.537 78.1969 122.735ZM75.6656 131.892C75.6656 130.392 75.7594 128.897 75.9469 127.407C75.9677 127.261 76.0302 127.136 76.1344 127.032C76.249 126.918 76.3948 126.86 76.5719 126.86C76.7281 126.86 76.8583 126.923 76.9625 127.048C77.0667 127.162 77.1188 127.298 77.1188 127.454C77.1188 127.517 77.1031 127.704 77.0719 128.017C77.051 128.329 77.0198 128.704 76.9781 129.142C76.9469 129.569 76.9156 130.027 76.8844 130.517C76.8635 130.996 76.8531 131.438 76.8531 131.845C76.8531 132.397 76.9052 132.845 77.0094 133.188C77.124 133.522 77.2646 133.782 77.4313 133.97C77.6083 134.157 77.7906 134.282 77.9781 134.345C78.176 134.407 78.3635 134.438 78.5406 134.438C78.8323 134.438 79.1344 134.334 79.4469 134.126C79.7594 133.918 80.0771 133.626 80.4 133.251C80.7333 132.876 81.0667 132.428 81.4 131.907C81.7333 131.376 82.0615 130.787 82.3844 130.142C82.4365 130.037 82.5094 129.959 82.6031 129.907C82.6969 129.845 82.801 129.813 82.9156 129.813C83.0823 129.813 83.2177 129.876 83.3219 130.001C83.4365 130.126 83.4938 130.261 83.4938 130.407C83.4938 130.511 83.4729 130.6 83.4313 130.673C83.3063 130.912 83.15 131.204 82.9625 131.548C82.775 131.892 82.5615 132.246 82.3219 132.61C82.0823 132.975 81.8167 133.34 81.525 133.704C81.2438 134.058 80.9417 134.381 80.6188 134.673C80.2958 134.954 79.9573 135.183 79.6031 135.36C79.249 135.537 78.8896 135.626 78.525 135.626C78.0563 135.626 77.6448 135.527 77.2906 135.329C76.9365 135.131 76.6344 134.866 76.3844 134.532C76.1448 134.199 75.9625 133.808 75.8375 133.36C75.7229 132.902 75.6656 132.412 75.6656 131.892ZM77.3219 122.735C77.3219 122.59 77.2646 122.465 77.15 122.36C77.0458 122.246 76.9208 122.188 76.775 122.188C76.6292 122.188 76.5042 122.246 76.4 122.36C76.2958 122.465 76.2438 122.59 76.2438 122.735C76.2438 122.881 76.2958 123.006 76.4 123.11C76.5042 123.215 76.6292 123.267 76.775 123.267C76.9208 123.267 77.0458 123.215 77.15 123.11C77.2646 123.006 77.3219 122.881 77.3219 122.735ZM87.1175 133.595C87.2842 133.251 87.4769 132.876 87.6956 132.47C87.9144 132.053 88.1488 131.636 88.3988 131.22C88.6488 130.793 88.9092 130.371 89.18 129.954C89.4613 129.537 89.7529 129.142 90.055 128.767C90.3571 128.402 90.6592 128.142 90.9613 127.985C91.2738 127.819 91.5654 127.735 91.8363 127.735C92.3779 127.735 92.779 127.933 93.0394 128.329C93.2998 128.725 93.43 129.215 93.43 129.798C93.43 129.933 93.4196 130.1 93.3988 130.298C93.3883 130.485 93.3727 130.688 93.3519 130.907C93.3415 131.126 93.3258 131.35 93.305 131.579C93.2946 131.798 93.2894 132.006 93.2894 132.204C93.2894 132.454 93.2998 132.694 93.3206 132.923C93.3519 133.152 93.404 133.355 93.4769 133.532C93.5498 133.699 93.654 133.834 93.7894 133.938C93.9248 134.032 94.1019 134.079 94.3206 134.079C94.7165 134.079 95.1019 133.928 95.4769 133.626C95.8519 133.313 96.1956 132.949 96.5081 132.532C96.831 132.105 97.1071 131.673 97.3363 131.235C97.5758 130.798 97.7529 130.444 97.8675 130.173C97.9196 130.058 97.9925 129.97 98.0863 129.907C98.1904 129.845 98.2998 129.813 98.4144 129.813C98.5915 129.813 98.7321 129.881 98.8363 130.017C98.9508 130.142 99.0081 130.277 99.0081 130.423C99.0081 130.496 98.9925 130.569 98.9613 130.642C98.9196 130.725 98.8363 130.897 98.7113 131.157C98.5863 131.418 98.4196 131.72 98.2113 132.063C98.0133 132.397 97.779 132.756 97.5081 133.142C97.2373 133.517 96.9352 133.86 96.6019 134.173C96.279 134.485 95.9248 134.746 95.5394 134.954C95.1644 135.162 94.7685 135.267 94.3519 135.267C93.8831 135.267 93.5029 135.178 93.2113 135.001C92.9196 134.813 92.6904 134.574 92.5238 134.282C92.3571 133.98 92.2425 133.652 92.18 133.298C92.1279 132.933 92.1019 132.569 92.1019 132.204C92.1019 132.048 92.1071 131.871 92.1175 131.673C92.1383 131.475 92.1592 131.267 92.18 131.048C92.2113 130.829 92.2321 130.61 92.2425 130.392C92.2633 130.173 92.2738 129.965 92.2738 129.767C92.2738 129.433 92.2217 129.209 92.1175 129.095C92.0133 128.97 91.9196 128.907 91.8363 128.907C91.6696 128.907 91.4769 129.006 91.2581 129.204C91.0498 129.392 90.8258 129.642 90.5863 129.954C90.3571 130.267 90.1175 130.621 89.8675 131.017C89.6279 131.402 89.3988 131.787 89.18 132.173C88.9717 132.558 88.7738 132.928 88.5863 133.282C88.4092 133.626 88.2685 133.912 88.1644 134.142C87.956 134.579 87.7477 134.871 87.5394 135.017C87.331 135.173 87.1175 135.251 86.8988 135.251C86.5967 135.251 86.3519 135.162 86.1644 134.985C85.9873 134.798 85.8988 134.537 85.8988 134.204C85.8988 134.131 85.9092 133.991 85.93 133.782C85.9508 133.563 85.9769 133.308 86.0081 133.017C86.0394 132.715 86.0706 132.392 86.1019 132.048C86.1331 131.704 86.1644 131.366 86.1956 131.032C86.2269 130.688 86.2529 130.371 86.2738 130.079C86.2946 129.787 86.305 129.543 86.305 129.345C86.305 129.084 86.2946 128.834 86.2738 128.595C86.2529 128.355 86.2113 128.209 86.1488 128.157C86.055 128.188 85.8883 128.386 85.6488 128.751C85.4092 129.105 85.1019 129.735 84.7269 130.642C84.6748 130.756 84.5967 130.845 84.4925 130.907C84.3883 130.97 84.279 131.001 84.1644 131.001C83.9873 131.001 83.8467 130.944 83.7425 130.829C83.6383 130.704 83.5863 130.563 83.5863 130.407C83.5863 130.334 83.6019 130.256 83.6331 130.173C84.1019 129.058 84.5394 128.241 84.9456 127.72C85.3623 127.188 85.7738 126.923 86.18 126.923C86.4196 126.923 86.6227 126.985 86.7894 127.11C86.956 127.225 87.0863 127.381 87.18 127.579C87.2842 127.777 87.3571 127.996 87.3988 128.235C87.4508 128.475 87.4769 128.72 87.4769 128.97C87.4769 129.157 87.4613 129.449 87.43 129.845C87.4092 130.241 87.3779 130.668 87.3363 131.126C87.2946 131.574 87.2529 132.022 87.2113 132.47C87.18 132.918 87.1488 133.293 87.1175 133.595ZM104.835 136.532C106.793 133.98 108.153 131.86 108.913 130.173C108.965 130.058 109.033 129.975 109.116 129.923C109.21 129.86 109.314 129.829 109.429 129.829C109.606 129.829 109.752 129.892 109.866 130.017C109.981 130.131 110.038 130.267 110.038 130.423C110.038 130.496 110.022 130.569 109.991 130.642C109.533 131.683 108.882 132.845 108.038 134.126C107.194 135.407 106.127 136.855 104.835 138.47C104.835 139.126 104.84 139.782 104.851 140.438C104.861 141.095 104.866 141.813 104.866 142.595C104.866 143.376 104.845 144.147 104.804 144.907C104.772 145.678 104.71 146.407 104.616 147.095C104.522 147.793 104.392 148.433 104.226 149.017C104.069 149.61 103.861 150.121 103.601 150.548C103.351 150.985 103.043 151.324 102.679 151.563C102.325 151.813 101.903 151.938 101.413 151.938C100.715 151.938 100.179 151.673 99.8037 151.142C99.4287 150.61 99.2412 149.855 99.2412 148.876C99.2412 148.355 99.2881 147.787 99.3819 147.173C99.486 146.569 99.6319 145.944 99.8194 145.298C100.007 144.652 100.231 143.996 100.491 143.329C100.762 142.673 101.059 142.032 101.382 141.407C101.705 140.782 102.054 140.183 102.429 139.61C102.814 139.037 103.22 138.517 103.647 138.048C103.658 137.319 103.663 136.595 103.663 135.876C103.674 135.157 103.689 134.496 103.71 133.892C103.397 134.287 103.022 134.6 102.585 134.829C102.158 135.058 101.731 135.173 101.304 135.173C100.939 135.173 100.606 135.105 100.304 134.97C100.012 134.824 99.7621 134.626 99.5537 134.376C99.3454 134.116 99.184 133.813 99.0694 133.47C98.9548 133.126 98.8975 132.751 98.8975 132.345C98.8975 131.532 99.0329 130.819 99.3037 130.204C99.585 129.579 99.9392 129.058 100.366 128.642C100.793 128.225 101.262 127.912 101.772 127.704C102.293 127.496 102.793 127.392 103.272 127.392C103.595 127.392 103.892 127.433 104.163 127.517C104.434 127.6 104.663 127.694 104.851 127.798C105.049 127.902 105.2 128.001 105.304 128.095C105.408 128.188 105.465 128.241 105.476 128.251C105.59 128.376 105.647 128.517 105.647 128.673C105.647 128.829 105.59 128.97 105.476 129.095C105.361 129.209 105.226 129.267 105.069 129.267C104.924 129.267 104.783 129.209 104.647 129.095C104.606 129.063 104.549 129.022 104.476 128.97C104.413 128.907 104.325 128.845 104.21 128.782C104.106 128.72 103.976 128.668 103.819 128.626C103.674 128.584 103.496 128.563 103.288 128.563C102.976 128.563 102.632 128.636 102.257 128.782C101.882 128.918 101.533 129.136 101.21 129.438C100.887 129.741 100.616 130.131 100.397 130.61C100.179 131.079 100.069 131.647 100.069 132.313C100.069 132.813 100.179 133.22 100.397 133.532C100.616 133.834 100.955 133.985 101.413 133.985C101.632 133.985 101.861 133.923 102.101 133.798C102.351 133.673 102.59 133.48 102.819 133.22C103.049 132.959 103.246 132.631 103.413 132.235C103.59 131.84 103.715 131.371 103.788 130.829C103.809 130.683 103.877 130.563 103.991 130.47C104.106 130.366 104.241 130.313 104.397 130.313C104.575 130.313 104.71 130.376 104.804 130.501C104.908 130.626 104.96 130.767 104.96 130.923C104.96 130.933 104.955 131.095 104.944 131.407C104.934 131.709 104.924 132.116 104.913 132.626C104.903 133.136 104.887 133.73 104.866 134.407C104.856 135.074 104.845 135.782 104.835 136.532ZM103.647 139.954C103.158 140.631 102.715 141.366 102.319 142.157C101.924 142.959 101.585 143.767 101.304 144.579C101.022 145.392 100.804 146.178 100.647 146.938C100.502 147.709 100.429 148.397 100.429 149.001C100.429 149.386 100.46 149.694 100.522 149.923C100.595 150.152 100.679 150.329 100.772 150.454C100.877 150.579 100.986 150.662 101.101 150.704C101.226 150.746 101.34 150.767 101.444 150.767C101.767 150.767 102.049 150.636 102.288 150.376C102.528 150.116 102.731 149.767 102.897 149.329C103.064 148.902 103.2 148.407 103.304 147.845C103.408 147.282 103.486 146.699 103.538 146.095C103.59 145.501 103.627 144.907 103.647 144.313C103.668 143.72 103.679 143.173 103.679 142.673C103.679 142.225 103.679 141.777 103.679 141.329C103.679 140.881 103.668 140.423 103.647 139.954ZM145.254 113.251C145.4 113.251 145.536 113.308 145.661 113.423C145.796 113.527 145.864 113.668 145.864 113.845C145.864 114.063 145.765 114.23 145.567 114.345C145.556 114.355 145.411 114.454 145.129 114.642C144.859 114.829 144.536 115.121 144.161 115.517C144.942 115.61 145.739 115.657 146.551 115.657C147.343 115.657 148.062 115.605 148.707 115.501C149.364 115.386 149.947 115.235 150.457 115.048C150.978 114.85 151.426 114.621 151.801 114.36C152.187 114.1 152.504 113.813 152.754 113.501C152.817 113.428 152.89 113.371 152.973 113.329C153.056 113.277 153.145 113.251 153.239 113.251C153.405 113.251 153.541 113.313 153.645 113.438C153.76 113.563 153.817 113.699 153.817 113.845C153.817 113.991 153.78 114.105 153.707 114.188C153.457 114.522 153.124 114.85 152.707 115.173C152.291 115.485 151.786 115.767 151.192 116.017C150.598 116.267 149.916 116.47 149.145 116.626C148.374 116.772 147.515 116.845 146.567 116.845C146.025 116.845 145.484 116.824 144.942 116.782C144.4 116.73 143.859 116.662 143.317 116.579C143.077 116.923 142.853 117.308 142.645 117.735C142.447 118.162 142.286 118.631 142.161 119.142C141.942 120.017 141.817 120.944 141.786 121.923C141.765 122.902 141.744 123.902 141.723 124.923C141.713 125.933 141.666 126.944 141.582 127.954C141.499 128.954 141.301 129.923 140.989 130.86C140.749 131.569 140.426 132.225 140.02 132.829C139.624 133.433 139.135 133.959 138.551 134.407C137.978 134.845 137.317 135.188 136.567 135.438C135.827 135.699 134.994 135.829 134.067 135.829C132.546 135.829 131.171 135.527 129.942 134.923C128.713 134.319 127.645 133.366 126.739 132.063C126.707 132.011 126.666 131.938 126.614 131.845C126.562 131.751 126.536 131.657 126.536 131.563C126.536 131.418 126.588 131.277 126.692 131.142C126.796 131.006 126.942 130.938 127.129 130.938C127.244 130.938 127.348 130.97 127.442 131.032C127.536 131.084 127.609 131.152 127.661 131.235C128.421 132.402 129.312 133.267 130.332 133.829C131.353 134.381 132.593 134.657 134.051 134.657C134.822 134.657 135.515 134.563 136.129 134.376C136.744 134.178 137.286 133.902 137.754 133.548C138.234 133.183 138.645 132.741 138.989 132.22C139.332 131.699 139.619 131.105 139.848 130.438C140.098 129.709 140.254 128.871 140.317 127.923C140.39 126.965 140.437 125.97 140.457 124.938C140.478 123.897 140.515 122.855 140.567 121.813C140.629 120.772 140.775 119.787 141.004 118.86C141.119 118.371 141.27 117.918 141.457 117.501C141.645 117.084 141.843 116.699 142.051 116.345C140.655 116.063 139.265 115.709 137.879 115.282C136.504 114.845 135.155 114.428 133.832 114.032C132.52 113.626 131.249 113.277 130.02 112.985C128.801 112.694 127.65 112.548 126.567 112.548C125.577 112.548 124.661 112.688 123.817 112.97C122.984 113.251 122.26 113.647 121.645 114.157C121.041 114.668 120.567 115.282 120.223 116.001C119.89 116.72 119.723 117.517 119.723 118.392C119.723 119.027 119.832 119.61 120.051 120.142C120.28 120.673 120.593 121.136 120.989 121.532C121.385 121.918 121.853 122.22 122.395 122.438C122.937 122.657 123.53 122.767 124.176 122.767C124.853 122.767 125.457 122.668 125.989 122.47C126.52 122.261 126.989 122.006 127.395 121.704C127.801 121.402 128.145 121.074 128.426 120.72C128.718 120.366 128.952 120.037 129.129 119.735C129.317 119.423 129.452 119.168 129.536 118.97C129.629 118.761 129.676 118.657 129.676 118.657C129.718 118.543 129.791 118.449 129.895 118.376C129.999 118.303 130.114 118.267 130.239 118.267C130.416 118.267 130.556 118.329 130.661 118.454C130.775 118.569 130.832 118.704 130.832 118.86C130.832 118.892 130.827 118.923 130.817 118.954C130.817 118.975 130.812 119.001 130.801 119.032C130.791 119.053 130.734 119.194 130.629 119.454C130.525 119.704 130.364 120.011 130.145 120.376C129.926 120.73 129.645 121.116 129.301 121.532C128.957 121.949 128.541 122.34 128.051 122.704C127.562 123.058 126.994 123.355 126.348 123.595C125.713 123.824 124.984 123.938 124.161 123.938C123.369 123.938 122.629 123.798 121.942 123.517C121.265 123.235 120.671 122.85 120.161 122.36C119.661 121.871 119.265 121.287 118.973 120.61C118.692 119.933 118.551 119.194 118.551 118.392C118.551 117.329 118.754 116.371 119.161 115.517C119.567 114.652 120.129 113.912 120.848 113.298C121.567 112.683 122.416 112.209 123.395 111.876C124.374 111.543 125.437 111.376 126.582 111.376C127.416 111.376 128.254 111.449 129.098 111.595C129.942 111.741 130.796 111.933 131.661 112.173C132.536 112.412 133.421 112.678 134.317 112.97C135.213 113.261 136.119 113.558 137.036 113.86C137.963 114.152 138.9 114.428 139.848 114.688C140.806 114.949 141.78 115.162 142.77 115.329C143.03 115.006 143.286 114.72 143.536 114.47C143.796 114.22 144.025 114.017 144.223 113.86C144.431 113.694 144.603 113.569 144.739 113.485C144.874 113.392 144.952 113.34 144.973 113.329C145.077 113.277 145.171 113.251 145.254 113.251ZM158.878 130.642C158.836 130.725 158.748 130.902 158.613 131.173C158.488 131.433 158.321 131.735 158.113 132.079C157.915 132.423 157.68 132.782 157.409 133.157C157.139 133.532 156.836 133.876 156.503 134.188C156.17 134.501 155.81 134.761 155.425 134.97C155.04 135.168 154.633 135.267 154.206 135.267C153.602 135.267 153.092 135.074 152.675 134.688C152.269 134.303 151.972 133.819 151.784 133.235C151.43 133.829 151.008 134.303 150.519 134.657C150.029 135.001 149.54 135.173 149.05 135.173C148.665 135.173 148.316 135.105 148.003 134.97C147.691 134.824 147.425 134.626 147.206 134.376C146.988 134.116 146.816 133.813 146.691 133.47C146.576 133.126 146.519 132.751 146.519 132.345C146.519 131.532 146.654 130.819 146.925 130.204C147.206 129.579 147.56 129.058 147.988 128.642C148.415 128.225 148.883 127.912 149.394 127.704C149.915 127.496 150.415 127.392 150.894 127.392C151.217 127.392 151.514 127.438 151.784 127.532C152.055 127.616 152.284 127.709 152.472 127.813C152.67 127.918 152.821 128.017 152.925 128.11C153.029 128.194 153.086 128.241 153.097 128.251C153.211 128.386 153.269 128.527 153.269 128.673C153.269 128.829 153.211 128.97 153.097 129.095C152.982 129.209 152.847 129.267 152.691 129.267C152.524 129.267 152.383 129.209 152.269 129.095C152.248 129.074 152.201 129.037 152.128 128.985C152.055 128.923 151.956 128.86 151.831 128.798C151.706 128.735 151.555 128.683 151.378 128.642C151.211 128.59 151.019 128.563 150.8 128.563C150.477 128.563 150.133 128.636 149.769 128.782C149.404 128.928 149.071 129.157 148.769 129.47C148.467 129.772 148.211 130.157 148.003 130.626C147.805 131.084 147.706 131.631 147.706 132.267C147.706 132.465 147.727 132.668 147.769 132.876C147.81 133.074 147.883 133.256 147.988 133.423C148.092 133.59 148.232 133.725 148.409 133.829C148.586 133.933 148.805 133.985 149.066 133.985C149.253 133.985 149.467 133.923 149.706 133.798C149.956 133.673 150.191 133.48 150.409 133.22C150.639 132.959 150.842 132.631 151.019 132.235C151.206 131.84 151.336 131.371 151.409 130.829C151.43 130.683 151.498 130.563 151.613 130.47C151.727 130.366 151.863 130.313 152.019 130.313C152.165 130.313 152.29 130.371 152.394 130.485C152.508 130.6 152.571 130.73 152.581 130.876C152.592 131.074 152.613 131.355 152.644 131.72C152.675 132.074 152.743 132.428 152.847 132.782C152.961 133.136 153.128 133.444 153.347 133.704C153.566 133.965 153.868 134.095 154.253 134.095C154.503 134.095 154.748 134.027 154.988 133.892C155.238 133.756 155.477 133.579 155.706 133.36C155.946 133.131 156.17 132.876 156.378 132.595C156.597 132.303 156.795 132.011 156.972 131.72C157.149 131.428 157.305 131.147 157.441 130.876C157.576 130.605 157.691 130.371 157.784 130.173C157.836 130.058 157.909 129.97 158.003 129.907C158.107 129.845 158.217 129.813 158.331 129.813C158.508 129.813 158.649 129.881 158.753 130.017C158.868 130.142 158.925 130.277 158.925 130.423C158.925 130.496 158.909 130.569 158.878 130.642ZM172.252 130.673C172.221 130.735 172.153 130.866 172.049 131.063C171.945 131.251 171.809 131.475 171.643 131.735C171.476 131.985 171.278 132.256 171.049 132.548C170.82 132.829 170.57 133.09 170.299 133.329C170.028 133.569 169.736 133.767 169.424 133.923C169.111 134.079 168.788 134.157 168.455 134.157C167.913 134.157 167.455 134.063 167.08 133.876C166.705 133.678 166.398 133.459 166.158 133.22C165.991 133.584 165.788 133.918 165.549 134.22C165.309 134.522 165.044 134.782 164.752 135.001C164.46 135.23 164.148 135.407 163.814 135.532C163.491 135.657 163.158 135.72 162.814 135.72C162.179 135.72 161.637 135.532 161.189 135.157C160.741 134.782 160.366 134.282 160.064 133.657C159.773 133.022 159.544 132.287 159.377 131.454C159.21 130.621 159.08 129.746 158.986 128.829C158.903 127.912 158.851 126.985 158.83 126.048C158.809 125.11 158.799 124.22 158.799 123.376C158.799 121.761 158.846 120.366 158.939 119.188C159.033 118.001 159.158 116.996 159.314 116.173C159.481 115.34 159.669 114.668 159.877 114.157C160.096 113.636 160.325 113.235 160.564 112.954C160.804 112.662 161.049 112.465 161.299 112.36C161.549 112.256 161.794 112.204 162.033 112.204C162.419 112.204 162.757 112.319 163.049 112.548C163.351 112.777 163.601 113.1 163.799 113.517C164.007 113.923 164.163 114.418 164.268 115.001C164.372 115.584 164.424 116.225 164.424 116.923C164.424 118.037 164.304 119.188 164.064 120.376C163.825 121.563 163.512 122.751 163.127 123.938C162.752 125.116 162.33 126.277 161.861 127.423C161.393 128.558 160.929 129.636 160.471 130.657C160.533 131.168 160.627 131.657 160.752 132.126C160.877 132.584 161.038 132.996 161.236 133.36C161.434 133.715 161.669 134.001 161.939 134.22C162.21 134.428 162.523 134.532 162.877 134.532C163.231 134.532 163.564 134.433 163.877 134.235C164.189 134.027 164.46 133.761 164.689 133.438C164.919 133.105 165.096 132.73 165.221 132.313C165.356 131.897 165.424 131.47 165.424 131.032C165.424 130.741 165.393 130.449 165.33 130.157C165.278 129.855 165.189 129.59 165.064 129.36C164.95 129.121 164.804 128.928 164.627 128.782C164.45 128.636 164.236 128.563 163.986 128.563C163.799 128.563 163.653 128.605 163.549 128.688C163.445 128.761 163.366 128.85 163.314 128.954C163.262 129.048 163.231 129.142 163.221 129.235C163.21 129.329 163.205 129.392 163.205 129.423C163.205 129.569 163.236 129.715 163.299 129.86C163.361 130.006 163.481 130.136 163.658 130.251C163.835 130.376 163.924 130.548 163.924 130.767C163.924 130.944 163.861 131.084 163.736 131.188C163.622 131.293 163.491 131.345 163.346 131.345C163.137 131.345 162.95 131.282 162.783 131.157C162.627 131.032 162.491 130.876 162.377 130.688C162.262 130.491 162.174 130.282 162.111 130.063C162.049 129.845 162.018 129.642 162.018 129.454C162.018 129.152 162.07 128.876 162.174 128.626C162.278 128.366 162.419 128.147 162.596 127.97C162.783 127.782 162.991 127.642 163.221 127.548C163.46 127.444 163.71 127.392 163.971 127.392C164.419 127.392 164.804 127.496 165.127 127.704C165.46 127.912 165.736 128.188 165.955 128.532C166.174 128.876 166.335 129.267 166.439 129.704C166.544 130.142 166.596 130.584 166.596 131.032C166.596 131.293 166.58 131.548 166.549 131.798C166.59 131.881 166.658 131.991 166.752 132.126C166.846 132.261 166.971 132.392 167.127 132.517C167.283 132.642 167.471 132.751 167.689 132.845C167.908 132.938 168.163 132.985 168.455 132.985C168.705 132.985 168.96 132.892 169.221 132.704C169.491 132.506 169.747 132.267 169.986 131.985C170.236 131.694 170.465 131.386 170.674 131.063C170.882 130.73 171.054 130.423 171.189 130.142C171.241 130.037 171.314 129.959 171.408 129.907C171.502 129.845 171.606 129.813 171.721 129.813C171.898 129.813 172.038 129.876 172.143 130.001C172.257 130.126 172.314 130.267 172.314 130.423C172.314 130.485 172.294 130.569 172.252 130.673ZM160.174 128.657C160.528 127.782 160.887 126.866 161.252 125.907C161.616 124.938 161.945 123.954 162.236 122.954C162.528 121.954 162.768 120.944 162.955 119.923C163.143 118.902 163.236 117.897 163.236 116.907C163.236 116.532 163.215 116.142 163.174 115.735C163.143 115.319 163.08 114.938 162.986 114.595C162.893 114.251 162.762 113.965 162.596 113.735C162.439 113.506 162.236 113.392 161.986 113.392C161.903 113.392 161.794 113.449 161.658 113.563C161.533 113.668 161.398 113.86 161.252 114.142C161.106 114.412 160.96 114.793 160.814 115.282C160.669 115.772 160.533 116.397 160.408 117.157C160.294 117.907 160.195 118.813 160.111 119.876C160.038 120.938 160.002 122.188 160.002 123.626C160.002 124.105 160.007 124.595 160.018 125.095C160.028 125.584 160.038 126.053 160.049 126.501C160.07 126.949 160.09 127.36 160.111 127.735C160.132 128.11 160.153 128.418 160.174 128.657ZM181.376 130.673C181.261 130.912 181.115 131.199 180.938 131.532C180.771 131.855 180.579 132.194 180.36 132.548C180.141 132.902 179.896 133.256 179.626 133.61C179.355 133.954 179.058 134.267 178.735 134.548C178.423 134.819 178.084 135.037 177.719 135.204C177.365 135.381 176.985 135.47 176.579 135.47C175.954 135.47 175.417 135.277 174.969 134.892C174.521 134.506 174.141 134.001 173.829 133.376C173.516 132.751 173.261 132.043 173.063 131.251C172.876 130.449 172.73 129.636 172.626 128.813C172.521 127.98 172.449 127.173 172.407 126.392C172.376 125.61 172.36 124.918 172.36 124.313C172.36 123.438 172.386 122.532 172.438 121.595C172.501 120.657 172.594 119.741 172.719 118.845C172.844 117.949 173.001 117.1 173.188 116.298C173.386 115.496 173.615 114.793 173.876 114.188C174.146 113.584 174.454 113.105 174.798 112.751C175.141 112.397 175.532 112.22 175.969 112.22C176.313 112.22 176.62 112.303 176.891 112.47C177.173 112.626 177.407 112.886 177.594 113.251C177.782 113.616 177.928 114.09 178.032 114.673C178.136 115.256 178.188 115.97 178.188 116.813C178.188 117.855 178.079 118.933 177.86 120.048C177.641 121.152 177.344 122.267 176.969 123.392C176.594 124.517 176.152 125.642 175.641 126.767C175.131 127.881 174.584 128.97 174.001 130.032C174.261 131.355 174.61 132.397 175.048 133.157C175.485 133.907 176.011 134.282 176.626 134.282C177.042 134.282 177.443 134.121 177.829 133.798C178.214 133.465 178.568 133.074 178.891 132.626C179.214 132.178 179.495 131.725 179.735 131.267C179.985 130.798 180.178 130.423 180.313 130.142C180.365 130.037 180.438 129.959 180.532 129.907C180.626 129.845 180.73 129.813 180.844 129.813C181.021 129.813 181.162 129.876 181.266 130.001C181.381 130.126 181.438 130.267 181.438 130.423C181.438 130.485 181.417 130.569 181.376 130.673ZM173.548 124.392C173.548 125.058 173.563 125.699 173.594 126.313C173.626 126.928 173.667 127.517 173.719 128.079C174.157 127.235 174.574 126.34 174.969 125.392C175.365 124.433 175.714 123.47 176.016 122.501C176.318 121.522 176.558 120.553 176.735 119.595C176.923 118.626 177.016 117.704 177.016 116.829C177.016 115.6 176.917 114.72 176.719 114.188C176.521 113.657 176.256 113.392 175.923 113.392C175.704 113.392 175.49 113.543 175.282 113.845C175.084 114.147 174.896 114.558 174.719 115.079C174.542 115.6 174.381 116.215 174.235 116.923C174.089 117.631 173.964 118.392 173.86 119.204C173.766 120.017 173.688 120.866 173.626 121.751C173.574 122.636 173.548 123.517 173.548 124.392ZM183.484 133.282C183.702 133.584 183.984 133.829 184.327 134.017C184.671 134.194 185.093 134.282 185.593 134.282C186.104 134.282 186.567 134.162 186.984 133.923C187.4 133.673 187.781 133.35 188.124 132.954C188.468 132.558 188.775 132.116 189.046 131.626C189.317 131.136 189.562 130.647 189.781 130.157C189.833 130.043 189.906 129.959 189.999 129.907C190.093 129.845 190.197 129.813 190.312 129.813C190.489 129.813 190.63 129.876 190.734 130.001C190.848 130.126 190.906 130.261 190.906 130.407C190.906 130.459 190.9 130.506 190.89 130.548C190.88 130.579 190.864 130.616 190.843 130.657C190.124 132.241 189.338 133.433 188.484 134.235C187.64 135.037 186.682 135.449 185.609 135.47C184.921 135.47 184.327 135.334 183.827 135.063C183.327 134.803 182.916 134.465 182.593 134.048C182.27 133.621 182.031 133.142 181.874 132.61C181.718 132.079 181.64 131.548 181.64 131.017C181.64 130.485 181.702 129.996 181.827 129.548C181.963 129.1 182.15 128.709 182.39 128.376C182.64 128.043 182.932 127.782 183.265 127.595C183.609 127.407 183.984 127.313 184.39 127.313C184.63 127.313 184.864 127.366 185.093 127.47C185.333 127.563 185.546 127.704 185.734 127.892C185.921 128.069 186.072 128.287 186.187 128.548C186.301 128.808 186.359 129.105 186.359 129.438C186.359 129.866 186.286 130.267 186.14 130.642C185.994 131.017 185.791 131.366 185.531 131.688C185.281 132.011 184.979 132.308 184.624 132.579C184.27 132.85 183.89 133.084 183.484 133.282ZM183.015 132.267C183.338 132.131 183.63 131.959 183.89 131.751C184.161 131.543 184.39 131.313 184.577 131.063C184.765 130.813 184.911 130.553 185.015 130.282C185.119 130.001 185.171 129.72 185.171 129.438C185.171 129.126 185.093 128.892 184.937 128.735C184.781 128.569 184.598 128.485 184.39 128.485C184.109 128.485 183.869 128.563 183.671 128.72C183.473 128.876 183.312 129.079 183.187 129.329C183.062 129.579 182.968 129.86 182.906 130.173C182.854 130.475 182.827 130.777 182.827 131.079C182.827 131.267 182.843 131.465 182.874 131.673C182.916 131.881 182.963 132.079 183.015 132.267Z" fill="white"></path></svg>